# MagicaVoxel @ Ephtracy

# group
o 

# material
mtllib casa_carreterapaso.mtl
usemtl palette

# normals
vn -1 0 0
vn 1 0 0
vn 0 0 1
vn 0 0 -1
vn 0 -1 0
vn 0 1 0

# texcoords
vt 0.0449219 0.5
vt 0.0488281 0.5
vt 0.0605469 0.5

# verts
v -2 0 2
v -2 0 -2
v -2 0.2 2
v -2 0.2 -2
v 1.6 0.1 2
v 1.6 0.1 -1.9
v 1.6 0.2 2
v 1.6 0.2 -1.9
v -1.6 0.1 2
v -1.6 0.1 -2
v -1.6 0.2 2
v -1.6 0.2 -2
v 2 0 2
v 2 0 -1.9
v 2 0 -2
v 2 0.1 -1.9
v 2 0.1 -2
v 2 0.2 2
v 2 0.2 -1.9
v -2 0 2
v -2 0.2 2
v -1.6 0 2
v -1.6 0.1 2
v -1.6 0.2 2
v 1.6 0 2
v 1.6 0.1 2
v 1.6 0.2 2
v 2 0 2
v 2 0.2 2
v 1.6 0.1 -1.9
v 1.6 0.2 -1.9
v 2 0.1 -1.9
v 2 0.2 -1.9
v -2 0 -2
v -2 0.2 -2
v -1.6 0 -2
v -1.6 0.1 -2
v -1.6 0.2 -2
v 2 0 -2
v 2 0.1 -2
v -2 0 2
v -1.6 0 2
v 1.6 0 2
v 2 0 2
v -1.4 0 1.1
v -1.1 0 1.1
v -0.8 0 1.1
v -0.5 0 1.1
v -0.2 0 1.1
v 0.1 0 1.1
v 0.4 0 1.1
v 0.7 0 1.1
v 1 0 1.1
v 1.3 0 1.1
v -1.4 0 -1.1
v -1.1 0 -1.1
v -0.8 0 -1.1
v -0.5 0 -1.1
v -0.2 0 -1.1
v 0.1 0 -1.1
v 0.4 0 -1.1
v 0.7 0 -1.1
v 1 0 -1.1
v 1.3 0 -1.1
v 1.6 0 -1.9
v 2 0 -1.9
v -2 0 -2
v -1.6 0 -2
v 2 0 -2
v -1.6 0.1 2
v 1.6 0.1 2
v -1.4 0.1 1.1
v -1.1 0.1 1.1
v -0.8 0.1 1.1
v -0.5 0.1 1.1
v -0.2 0.1 1.1
v 0.1 0.1 1.1
v 0.4 0.1 1.1
v 0.7 0.1 1.1
v 1 0.1 1.1
v 1.3 0.1 1.1
v -1.4 0.1 -1.1
v -1.1 0.1 -1.1
v -0.8 0.1 -1.1
v -0.5 0.1 -1.1
v -0.2 0.1 -1.1
v 0.1 0.1 -1.1
v 0.4 0.1 -1.1
v 0.7 0.1 -1.1
v 1 0.1 -1.1
v 1.3 0.1 -1.1
v 1.6 0.1 -1.9
v 2 0.1 -1.9
v -1.6 0.1 -2
v 2 0.1 -2
v -2 0.2 2
v -1.6 0.2 2
v 1.6 0.2 2
v 2 0.2 2
v 1.6 0.2 -1.9
v 2 0.2 -1.9
v -2 0.2 -2
v -1.6 0.2 -2

# faces
f 3/1/1 2/1/1 1/1/1
f 4/1/1 2/1/1 3/1/1
f 7/1/1 6/1/1 5/1/1
f 8/1/1 6/1/1 7/1/1
f 9/1/2 10/1/2 11/1/2
f 11/1/2 10/1/2 12/1/2
f 13/1/2 14/1/2 16/1/2
f 14/3/2 15/3/2 16/3/2
f 16/3/2 15/3/2 17/3/2
f 13/1/2 16/1/2 18/1/2
f 18/1/2 16/1/2 19/1/2
f 22/1/3 21/1/3 20/1/3
f 23/1/3 21/1/3 22/1/3
f 24/1/3 21/1/3 23/1/3
f 25/3/3 23/3/3 22/3/3
f 26/3/3 23/3/3 25/3/3
f 28/1/3 26/1/3 25/1/3
f 28/1/3 27/1/3 26/1/3
f 29/1/3 27/1/3 28/1/3
f 30/1/4 31/1/4 32/1/4
f 32/1/4 31/1/4 33/1/4
f 34/1/4 35/1/4 36/1/4
f 36/1/4 35/1/4 37/1/4
f 37/1/4 35/1/4 38/1/4
f 36/3/4 37/3/4 39/3/4
f 39/3/4 37/3/4 40/3/4
f 45/3/5 43/3/5 42/3/5
f 46/3/5 43/3/5 45/3/5
f 47/3/5 43/3/5 46/3/5
f 48/3/5 43/3/5 47/3/5
f 49/3/5 43/3/5 48/3/5
f 50/3/5 43/3/5 49/3/5
f 51/3/5 43/3/5 50/3/5
f 52/3/5 43/3/5 51/3/5
f 53/3/5 43/3/5 52/3/5
f 54/3/5 43/3/5 53/3/5
f 55/3/5 45/3/5 42/3/5
f 55/2/5 46/2/5 45/2/5
f 56/3/5 47/3/5 46/3/5
f 56/2/5 46/2/5 55/2/5
f 57/2/5 48/2/5 47/2/5
f 57/3/5 47/3/5 56/3/5
f 58/3/5 49/3/5 48/3/5
f 58/2/5 48/2/5 57/2/5
f 59/2/5 50/2/5 49/2/5
f 59/3/5 49/3/5 58/3/5
f 60/3/5 51/3/5 50/3/5
f 60/2/5 50/2/5 59/2/5
f 61/2/5 52/2/5 51/2/5
f 61/3/5 51/3/5 60/3/5
f 62/3/5 53/3/5 52/3/5
f 62/2/5 52/2/5 61/2/5
f 63/2/5 54/2/5 53/2/5
f 63/3/5 53/3/5 62/3/5
f 64/3/5 43/3/5 54/3/5
f 64/2/5 54/2/5 63/2/5
f 65/1/5 44/1/5 43/1/5
f 65/3/5 43/3/5 64/3/5
f 65/3/5 64/3/5 63/3/5
f 65/3/5 61/3/5 60/3/5
f 65/3/5 60/3/5 59/3/5
f 65/3/5 59/3/5 58/3/5
f 65/3/5 58/3/5 57/3/5
f 65/3/5 57/3/5 56/3/5
f 65/3/5 56/3/5 55/3/5
f 65/3/5 63/3/5 62/3/5
f 65/3/5 62/3/5 61/3/5
f 66/1/5 44/1/5 65/1/5
f 67/1/5 42/1/5 41/1/5
f 68/3/5 55/3/5 42/3/5
f 68/1/5 42/1/5 67/1/5
f 68/3/5 65/3/5 55/3/5
f 68/3/5 66/3/5 65/3/5
f 69/3/5 66/3/5 68/3/5
f 70/3/6 71/3/6 72/3/6
f 72/3/6 71/3/6 73/3/6
f 73/3/6 71/3/6 74/3/6
f 74/3/6 71/3/6 75/3/6
f 75/3/6 71/3/6 76/3/6
f 76/3/6 71/3/6 77/3/6
f 77/3/6 71/3/6 78/3/6
f 78/3/6 71/3/6 79/3/6
f 79/3/6 71/3/6 80/3/6
f 80/3/6 71/3/6 81/3/6
f 70/3/6 72/3/6 82/3/6
f 72/2/6 73/2/6 82/2/6
f 73/3/6 74/3/6 83/3/6
f 82/2/6 73/2/6 83/2/6
f 74/2/6 75/2/6 84/2/6
f 83/3/6 74/3/6 84/3/6
f 75/3/6 76/3/6 85/3/6
f 84/2/6 75/2/6 85/2/6
f 76/2/6 77/2/6 86/2/6
f 85/3/6 76/3/6 86/3/6
f 77/3/6 78/3/6 87/3/6
f 86/2/6 77/2/6 87/2/6
f 78/2/6 79/2/6 88/2/6
f 87/3/6 78/3/6 88/3/6
f 79/3/6 80/3/6 89/3/6
f 88/2/6 79/2/6 89/2/6
f 80/2/6 81/2/6 90/2/6
f 89/3/6 80/3/6 90/3/6
f 81/3/6 71/3/6 91/3/6
f 90/2/6 81/2/6 91/2/6
f 89/3/6 90/3/6 92/3/6
f 91/3/6 71/3/6 92/3/6
f 90/3/6 91/3/6 92/3/6
f 87/3/6 88/3/6 92/3/6
f 86/3/6 87/3/6 92/3/6
f 85/3/6 86/3/6 92/3/6
f 84/3/6 85/3/6 92/3/6
f 83/3/6 84/3/6 92/3/6
f 82/3/6 83/3/6 92/3/6
f 88/3/6 89/3/6 92/3/6
f 70/3/6 82/3/6 94/3/6
f 92/3/6 93/3/6 94/3/6
f 82/3/6 92/3/6 94/3/6
f 94/3/6 93/3/6 95/3/6
f 98/1/6 99/1/6 100/1/6
f 100/1/6 99/1/6 101/1/6
f 96/1/6 97/1/6 102/1/6
f 102/1/6 97/1/6 103/1/6
