# MagicaVoxel @ Ephtracy

# group
o 

# material
mtllib casa_banquito.mtl
usemtl palette

# normals
vn -1 0 0
vn 1 0 0
vn 0 0 1
vn 0 0 -1
vn 0 -1 0
vn 0 1 0

# texcoords
vt 0.0332031 0.5
vt 0.0644531 0.5

# verts
v -0.7 0.3 -0.1
v -0.7 0.3 -0.2
v -0.7 0.3 -0.3
v -0.7 0.3 -0.4
v -0.7 0.3 -0.5
v -0.7 0.3 -0.6
v -0.7 0.3 -0.7
v -0.7 0.3 -0.8
v -0.7 0.4 -0.1
v -0.7 0.4 -0.2
v -0.7 0.4 -0.3
v -0.7 0.4 -0.4
v -0.7 0.4 -0.5
v -0.7 0.4 -0.6
v -0.7 0.4 -0.7
v -0.7 0.4 -0.8
v -0.7 0.5 -0.8
v -0.7 0.5 -0.9
v -0.7 0.6 -0.8
v -0.7 0.6 -0.9
v -0.7 0.7 -0.8
v -0.7 0.7 -0.9
v -0.7 0.8 -0.8
v -0.7 0.8 -0.9
v -0.6 0 -0.1
v -0.6 0 -0.2
v -0.6 0 -0.7
v -0.6 0 -0.8
v -0.6 0.2 -0.2
v -0.6 0.2 -0.7
v -0.6 0.3 -0.1
v -0.6 0.3 -0.2
v -0.6 0.3 -0.3
v -0.6 0.3 -0.4
v -0.6 0.3 -0.5
v -0.6 0.3 -0.6
v -0.6 0.3 -0.7
v -0.6 0.3 -0.8
v -0.6 0.3 -0.9
v -0.6 0.4 -0.8
v -0.6 0.5 -0.8
v -0.6 0.5 -0.9
v -0.6 0.6 -0.8
v -0.6 0.6 -0.9
v -0.6 0.7 -0.8
v -0.6 0.7 -0.9
v 0.6 0 -0.1
v 0.6 0 -0.2
v 0.6 0 -0.7
v 0.6 0 -0.8
v 0.6 0.2 -0.2
v 0.6 0.2 -0.7
v 0.6 0.3 -0.1
v 0.6 0.3 -0.2
v 0.6 0.3 -0.3
v 0.6 0.3 -0.4
v 0.6 0.3 -0.5
v 0.6 0.3 -0.6
v 0.6 0.3 -0.7
v 0.6 0.3 -0.8
v 0.6 0.3 -0.9
v 0.6 0.4 -0.8
v 0.6 0.5 -0.8
v 0.6 0.5 -0.9
v 0.6 0.6 -0.8
v 0.6 0.6 -0.9
v 0.6 0.7 -0.8
v 0.6 0.7 -0.9
v -0.5 0 -0.1
v -0.5 0 -0.2
v -0.5 0 -0.7
v -0.5 0 -0.8
v -0.5 0.2 -0.2
v -0.5 0.2 -0.7
v -0.5 0.3 -0.1
v -0.5 0.3 -0.2
v -0.5 0.3 -0.3
v -0.5 0.3 -0.4
v -0.5 0.3 -0.5
v -0.5 0.3 -0.6
v -0.5 0.3 -0.7
v -0.5 0.3 -0.8
v -0.5 0.3 -0.9
v -0.5 0.4 -0.8
v -0.5 0.5 -0.8
v -0.5 0.5 -0.9
v -0.5 0.6 -0.8
v -0.5 0.6 -0.9
v -0.5 0.7 -0.8
v -0.5 0.7 -0.9
v 0.7 0 -0.1
v 0.7 0 -0.2
v 0.7 0 -0.7
v 0.7 0 -0.8
v 0.7 0.2 -0.2
v 0.7 0.2 -0.7
v 0.7 0.3 -0.1
v 0.7 0.3 -0.2
v 0.7 0.3 -0.3
v 0.7 0.3 -0.4
v 0.7 0.3 -0.5
v 0.7 0.3 -0.6
v 0.7 0.3 -0.7
v 0.7 0.3 -0.8
v 0.7 0.3 -0.9
v 0.7 0.4 -0.8
v 0.7 0.5 -0.8
v 0.7 0.5 -0.9
v 0.7 0.6 -0.8
v 0.7 0.6 -0.9
v 0.7 0.7 -0.8
v 0.7 0.7 -0.9
v 0.8 0.3 -0.1
v 0.8 0.3 -0.2
v 0.8 0.3 -0.3
v 0.8 0.3 -0.4
v 0.8 0.3 -0.5
v 0.8 0.3 -0.6
v 0.8 0.3 -0.7
v 0.8 0.3 -0.8
v 0.8 0.4 -0.1
v 0.8 0.4 -0.2
v 0.8 0.4 -0.3
v 0.8 0.4 -0.4
v 0.8 0.4 -0.5
v 0.8 0.4 -0.6
v 0.8 0.4 -0.7
v 0.8 0.4 -0.8
v 0.8 0.5 -0.8
v 0.8 0.5 -0.9
v 0.8 0.6 -0.8
v 0.8 0.6 -0.9
v 0.8 0.7 -0.8
v 0.8 0.7 -0.9
v 0.8 0.8 -0.8
v 0.8 0.8 -0.9
v -0.7 0.3 -0.1
v -0.7 0.4 -0.1
v -0.6 0 -0.1
v -0.6 0.3 -0.1
v -0.5 0 -0.1
v -0.5 0.3 -0.1
v 0.6 0 -0.1
v 0.6 0.3 -0.1
v 0.7 0 -0.1
v 0.7 0.3 -0.1
v 0.8 0.3 -0.1
v 0.8 0.4 -0.1
v -0.7 0.3 -0.3
v -0.7 0.4 -0.3
v -0.6 0.3 -0.3
v -0.5 0.3 -0.3
v 0.6 0.3 -0.3
v 0.7 0.3 -0.3
v 0.8 0.3 -0.3
v 0.8 0.4 -0.3
v -0.7 0.3 -0.5
v -0.7 0.4 -0.5
v -0.6 0.3 -0.5
v -0.5 0.3 -0.5
v 0.6 0.3 -0.5
v 0.7 0.3 -0.5
v 0.8 0.3 -0.5
v 0.8 0.4 -0.5
v -0.7 0.3 -0.7
v -0.7 0.4 -0.7
v -0.6 0 -0.7
v -0.6 0.2 -0.7
v -0.6 0.3 -0.7
v -0.5 0 -0.7
v -0.5 0.2 -0.7
v -0.5 0.3 -0.7
v 0.6 0 -0.7
v 0.6 0.2 -0.7
v 0.6 0.3 -0.7
v 0.7 0 -0.7
v 0.7 0.2 -0.7
v 0.7 0.3 -0.7
v 0.8 0.3 -0.7
v 0.8 0.4 -0.7
v -0.7 0.5 -0.8
v -0.7 0.6 -0.8
v -0.7 0.7 -0.8
v -0.7 0.8 -0.8
v -0.6 0.4 -0.8
v -0.6 0.5 -0.8
v -0.6 0.6 -0.8
v -0.6 0.7 -0.8
v -0.5 0.4 -0.8
v -0.5 0.5 -0.8
v -0.5 0.6 -0.8
v -0.5 0.7 -0.8
v 0.6 0.4 -0.8
v 0.6 0.5 -0.8
v 0.6 0.6 -0.8
v 0.6 0.7 -0.8
v 0.7 0.4 -0.8
v 0.7 0.5 -0.8
v 0.7 0.6 -0.8
v 0.7 0.7 -0.8
v 0.8 0.5 -0.8
v 0.8 0.6 -0.8
v 0.8 0.7 -0.8
v 0.8 0.8 -0.8
v -0.7 0.3 -0.2
v -0.7 0.4 -0.2
v -0.6 0 -0.2
v -0.6 0.2 -0.2
v -0.6 0.3 -0.2
v -0.5 0 -0.2
v -0.5 0.2 -0.2
v -0.5 0.3 -0.2
v 0.6 0 -0.2
v 0.6 0.2 -0.2
v 0.6 0.3 -0.2
v 0.7 0 -0.2
v 0.7 0.2 -0.2
v 0.7 0.3 -0.2
v 0.8 0.3 -0.2
v 0.8 0.4 -0.2
v -0.7 0.3 -0.4
v -0.7 0.4 -0.4
v -0.6 0.3 -0.4
v -0.5 0.3 -0.4
v 0.6 0.3 -0.4
v 0.7 0.3 -0.4
v 0.8 0.3 -0.4
v 0.8 0.4 -0.4
v -0.7 0.3 -0.6
v -0.7 0.4 -0.6
v -0.6 0.3 -0.6
v -0.5 0.3 -0.6
v 0.6 0.3 -0.6
v 0.7 0.3 -0.6
v 0.8 0.3 -0.6
v 0.8 0.4 -0.6
v -0.7 0.3 -0.8
v -0.7 0.4 -0.8
v -0.6 0 -0.8
v -0.6 0.3 -0.8
v -0.6 0.4 -0.8
v -0.5 0 -0.8
v -0.5 0.3 -0.8
v -0.5 0.4 -0.8
v 0.6 0 -0.8
v 0.6 0.3 -0.8
v 0.6 0.4 -0.8
v 0.7 0 -0.8
v 0.7 0.3 -0.8
v 0.7 0.4 -0.8
v 0.8 0.3 -0.8
v 0.8 0.4 -0.8
v -0.7 0.5 -0.9
v -0.7 0.6 -0.9
v -0.7 0.7 -0.9
v -0.7 0.8 -0.9
v -0.6 0.3 -0.9
v -0.6 0.5 -0.9
v -0.6 0.6 -0.9
v -0.6 0.7 -0.9
v -0.5 0.3 -0.9
v -0.5 0.5 -0.9
v -0.5 0.6 -0.9
v -0.5 0.7 -0.9
v 0.6 0.3 -0.9
v 0.6 0.5 -0.9
v 0.6 0.6 -0.9
v 0.6 0.7 -0.9
v 0.7 0.3 -0.9
v 0.7 0.5 -0.9
v 0.7 0.6 -0.9
v 0.7 0.7 -0.9
v 0.8 0.5 -0.9
v 0.8 0.6 -0.9
v 0.8 0.7 -0.9
v 0.8 0.8 -0.9
v -0.6 0 -0.1
v -0.5 0 -0.1
v 0.6 0 -0.1
v 0.7 0 -0.1
v -0.6 0 -0.2
v -0.5 0 -0.2
v 0.6 0 -0.2
v 0.7 0 -0.2
v -0.6 0 -0.7
v -0.5 0 -0.7
v 0.6 0 -0.7
v 0.7 0 -0.7
v -0.6 0 -0.8
v -0.5 0 -0.8
v 0.6 0 -0.8
v 0.7 0 -0.8
v -0.6 0.2 -0.2
v -0.5 0.2 -0.2
v 0.6 0.2 -0.2
v 0.7 0.2 -0.2
v -0.6 0.2 -0.7
v -0.5 0.2 -0.7
v 0.6 0.2 -0.7
v 0.7 0.2 -0.7
v -0.7 0.3 -0.1
v -0.6 0.3 -0.1
v -0.5 0.3 -0.1
v 0.6 0.3 -0.1
v 0.7 0.3 -0.1
v 0.8 0.3 -0.1
v -0.7 0.3 -0.2
v -0.6 0.3 -0.2
v -0.5 0.3 -0.2
v 0.6 0.3 -0.2
v 0.7 0.3 -0.2
v 0.8 0.3 -0.2
v -0.7 0.3 -0.3
v -0.6 0.3 -0.3
v -0.5 0.3 -0.3
v 0.6 0.3 -0.3
v 0.7 0.3 -0.3
v 0.8 0.3 -0.3
v -0.7 0.3 -0.4
v -0.6 0.3 -0.4
v -0.5 0.3 -0.4
v 0.6 0.3 -0.4
v 0.7 0.3 -0.4
v 0.8 0.3 -0.4
v -0.7 0.3 -0.5
v -0.6 0.3 -0.5
v -0.5 0.3 -0.5
v 0.6 0.3 -0.5
v 0.7 0.3 -0.5
v 0.8 0.3 -0.5
v -0.7 0.3 -0.6
v -0.6 0.3 -0.6
v -0.5 0.3 -0.6
v 0.6 0.3 -0.6
v 0.7 0.3 -0.6
v 0.8 0.3 -0.6
v -0.7 0.3 -0.7
v -0.6 0.3 -0.7
v -0.5 0.3 -0.7
v 0.6 0.3 -0.7
v 0.7 0.3 -0.7
v 0.8 0.3 -0.7
v -0.7 0.3 -0.8
v -0.6 0.3 -0.8
v -0.5 0.3 -0.8
v 0.6 0.3 -0.8
v 0.7 0.3 -0.8
v 0.8 0.3 -0.8
v -0.6 0.3 -0.9
v -0.5 0.3 -0.9
v 0.6 0.3 -0.9
v 0.7 0.3 -0.9
v -0.7 0.5 -0.8
v -0.6 0.5 -0.8
v -0.5 0.5 -0.8
v 0.6 0.5 -0.8
v 0.7 0.5 -0.8
v 0.8 0.5 -0.8
v -0.7 0.5 -0.9
v -0.6 0.5 -0.9
v -0.5 0.5 -0.9
v 0.6 0.5 -0.9
v 0.7 0.5 -0.9
v 0.8 0.5 -0.9
v -0.7 0.7 -0.8
v -0.6 0.7 -0.8
v -0.5 0.7 -0.8
v 0.6 0.7 -0.8
v 0.7 0.7 -0.8
v 0.8 0.7 -0.8
v -0.7 0.7 -0.9
v -0.6 0.7 -0.9
v -0.5 0.7 -0.9
v 0.6 0.7 -0.9
v 0.7 0.7 -0.9
v 0.8 0.7 -0.9
v -0.6 0.3 -0.2
v -0.5 0.3 -0.2
v 0.6 0.3 -0.2
v 0.7 0.3 -0.2
v -0.6 0.3 -0.3
v -0.5 0.3 -0.3
v 0.6 0.3 -0.3
v 0.7 0.3 -0.3
v -0.6 0.3 -0.4
v -0.5 0.3 -0.4
v 0.6 0.3 -0.4
v 0.7 0.3 -0.4
v -0.6 0.3 -0.5
v -0.5 0.3 -0.5
v 0.6 0.3 -0.5
v 0.7 0.3 -0.5
v -0.6 0.3 -0.6
v -0.5 0.3 -0.6
v 0.6 0.3 -0.6
v 0.7 0.3 -0.6
v -0.6 0.3 -0.7
v -0.5 0.3 -0.7
v 0.6 0.3 -0.7
v 0.7 0.3 -0.7
v -0.7 0.4 -0.1
v 0.8 0.4 -0.1
v -0.7 0.4 -0.2
v 0.8 0.4 -0.2
v -0.7 0.4 -0.3
v 0.8 0.4 -0.3
v -0.7 0.4 -0.4
v 0.8 0.4 -0.4
v -0.7 0.4 -0.5
v 0.8 0.4 -0.5
v -0.7 0.4 -0.6
v 0.8 0.4 -0.6
v -0.7 0.4 -0.7
v 0.8 0.4 -0.7
v -0.7 0.4 -0.8
v -0.6 0.4 -0.8
v -0.5 0.4 -0.8
v 0.6 0.4 -0.8
v 0.7 0.4 -0.8
v 0.8 0.4 -0.8
v -0.7 0.6 -0.8
v -0.6 0.6 -0.8
v -0.5 0.6 -0.8
v 0.6 0.6 -0.8
v 0.7 0.6 -0.8
v 0.8 0.6 -0.8
v -0.7 0.6 -0.9
v -0.6 0.6 -0.9
v -0.5 0.6 -0.9
v 0.6 0.6 -0.9
v 0.7 0.6 -0.9
v 0.8 0.6 -0.9
v -0.7 0.8 -0.8
v 0.8 0.8 -0.8
v -0.7 0.8 -0.9
v 0.8 0.8 -0.9

# faces
f 9/1/1 2/1/1 1/1/1
f 10/1/1 2/1/1 9/1/1
f 11/1/1 4/1/1 3/1/1
f 12/1/1 4/1/1 11/1/1
f 13/1/1 6/1/1 5/1/1
f 14/1/1 6/1/1 13/1/1
f 15/1/1 8/1/1 7/1/1
f 16/1/1 8/1/1 15/1/1
f 19/1/1 18/1/1 17/1/1
f 20/1/1 18/1/1 19/1/1
f 23/1/1 22/1/1 21/1/1
f 24/1/1 22/1/1 23/1/1
f 29/2/1 26/2/1 25/2/1
f 30/2/1 28/2/1 27/2/1
f 31/2/1 29/2/1 25/2/1
f 31/2/1 30/2/1 29/2/1
f 32/2/1 30/2/1 31/2/1
f 33/2/1 30/2/1 32/2/1
f 34/2/1 30/2/1 33/2/1
f 35/2/1 30/2/1 34/2/1
f 36/2/1 30/2/1 35/2/1
f 37/2/1 28/2/1 30/2/1
f 37/2/1 30/2/1 36/2/1
f 38/2/1 28/2/1 37/2/1
f 40/2/1 39/2/1 38/2/1
f 41/2/1 39/2/1 40/2/1
f 42/2/1 39/2/1 41/2/1
f 45/2/1 44/2/1 43/2/1
f 46/2/1 44/2/1 45/2/1
f 51/2/1 48/2/1 47/2/1
f 52/2/1 50/2/1 49/2/1
f 53/2/1 51/2/1 47/2/1
f 53/2/1 52/2/1 51/2/1
f 54/2/1 52/2/1 53/2/1
f 55/2/1 52/2/1 54/2/1
f 56/2/1 52/2/1 55/2/1
f 57/2/1 52/2/1 56/2/1
f 58/2/1 52/2/1 57/2/1
f 59/2/1 50/2/1 52/2/1
f 59/2/1 52/2/1 58/2/1
f 60/2/1 50/2/1 59/2/1
f 62/2/1 61/2/1 60/2/1
f 63/2/1 61/2/1 62/2/1
f 64/2/1 61/2/1 63/2/1
f 67/2/1 66/2/1 65/2/1
f 68/2/1 66/2/1 67/2/1
f 69/2/2 70/2/2 73/2/2
f 71/2/2 72/2/2 74/2/2
f 69/2/2 73/2/2 75/2/2
f 73/2/2 74/2/2 75/2/2
f 75/2/2 74/2/2 76/2/2
f 76/2/2 74/2/2 77/2/2
f 77/2/2 74/2/2 78/2/2
f 78/2/2 74/2/2 79/2/2
f 79/2/2 74/2/2 80/2/2
f 74/2/2 72/2/2 81/2/2
f 80/2/2 74/2/2 81/2/2
f 81/2/2 72/2/2 82/2/2
f 82/2/2 83/2/2 84/2/2
f 84/2/2 83/2/2 85/2/2
f 85/2/2 83/2/2 86/2/2
f 87/2/2 88/2/2 89/2/2
f 89/2/2 88/2/2 90/2/2
f 91/2/2 92/2/2 95/2/2
f 93/2/2 94/2/2 96/2/2
f 91/2/2 95/2/2 97/2/2
f 95/2/2 96/2/2 97/2/2
f 97/2/2 96/2/2 98/2/2
f 98/2/2 96/2/2 99/2/2
f 99/2/2 96/2/2 100/2/2
f 100/2/2 96/2/2 101/2/2
f 101/2/2 96/2/2 102/2/2
f 96/2/2 94/2/2 103/2/2
f 102/2/2 96/2/2 103/2/2
f 103/2/2 94/2/2 104/2/2
f 104/2/2 105/2/2 106/2/2
f 106/2/2 105/2/2 107/2/2
f 107/2/2 105/2/2 108/2/2
f 109/2/2 110/2/2 111/2/2
f 111/2/2 110/2/2 112/2/2
f 113/1/2 114/1/2 121/1/2
f 121/1/2 114/1/2 122/1/2
f 115/1/2 116/1/2 123/1/2
f 123/1/2 116/1/2 124/1/2
f 117/1/2 118/1/2 125/1/2
f 125/1/2 118/1/2 126/1/2
f 119/1/2 120/1/2 127/1/2
f 127/1/2 120/1/2 128/1/2
f 129/1/2 130/1/2 131/1/2
f 131/1/2 130/1/2 132/1/2
f 133/1/2 134/1/2 135/1/2
f 135/1/2 134/1/2 136/1/2
f 140/1/3 138/1/3 137/1/3
f 141/2/3 140/2/3 139/2/3
f 142/1/3 138/1/3 140/1/3
f 142/2/3 140/2/3 141/2/3
f 144/1/3 138/1/3 142/1/3
f 145/2/3 144/2/3 143/2/3
f 146/1/3 138/1/3 144/1/3
f 146/2/3 144/2/3 145/2/3
f 147/1/3 138/1/3 146/1/3
f 148/1/3 138/1/3 147/1/3
f 151/1/3 150/1/3 149/1/3
f 152/1/3 150/1/3 151/1/3
f 153/1/3 150/1/3 152/1/3
f 154/1/3 150/1/3 153/1/3
f 155/1/3 150/1/3 154/1/3
f 156/1/3 150/1/3 155/1/3
f 159/1/3 158/1/3 157/1/3
f 160/1/3 158/1/3 159/1/3
f 161/1/3 158/1/3 160/1/3
f 162/1/3 158/1/3 161/1/3
f 163/1/3 158/1/3 162/1/3
f 164/1/3 158/1/3 163/1/3
f 169/1/3 166/1/3 165/1/3
f 170/2/3 168/2/3 167/2/3
f 171/2/3 168/2/3 170/2/3
f 172/1/3 166/1/3 169/1/3
f 175/1/3 166/1/3 172/1/3
f 176/2/3 174/2/3 173/2/3
f 177/2/3 174/2/3 176/2/3
f 178/1/3 166/1/3 175/1/3
f 179/1/3 166/1/3 178/1/3
f 180/1/3 166/1/3 179/1/3
f 186/1/3 182/1/3 181/1/3
f 187/1/3 182/1/3 186/1/3
f 188/1/3 184/1/3 183/1/3
f 189/2/3 186/2/3 185/2/3
f 190/1/3 187/1/3 186/1/3
f 190/2/3 186/2/3 189/2/3
f 191/2/3 188/2/3 187/2/3
f 191/1/3 187/1/3 190/1/3
f 192/1/3 184/1/3 188/1/3
f 192/2/3 188/2/3 191/2/3
f 194/1/3 191/1/3 190/1/3
f 195/1/3 191/1/3 194/1/3
f 196/1/3 184/1/3 192/1/3
f 197/2/3 194/2/3 193/2/3
f 198/1/3 195/1/3 194/1/3
f 198/2/3 194/2/3 197/2/3
f 199/2/3 196/2/3 195/2/3
f 199/1/3 195/1/3 198/1/3
f 200/1/3 184/1/3 196/1/3
f 200/2/3 196/2/3 199/2/3
f 201/1/3 199/1/3 198/1/3
f 202/1/3 199/1/3 201/1/3
f 203/1/3 184/1/3 200/1/3
f 204/1/3 184/1/3 203/1/3
f 205/1/4 206/1/4 209/1/4
f 207/2/4 208/2/4 210/2/4
f 210/2/4 208/2/4 211/2/4
f 209/1/4 206/1/4 212/1/4
f 212/1/4 206/1/4 215/1/4
f 213/2/4 214/2/4 216/2/4
f 216/2/4 214/2/4 217/2/4
f 215/1/4 206/1/4 218/1/4
f 218/1/4 206/1/4 219/1/4
f 219/1/4 206/1/4 220/1/4
f 221/1/4 222/1/4 223/1/4
f 223/1/4 222/1/4 224/1/4
f 224/1/4 222/1/4 225/1/4
f 225/1/4 222/1/4 226/1/4
f 226/1/4 222/1/4 227/1/4
f 227/1/4 222/1/4 228/1/4
f 229/1/4 230/1/4 231/1/4
f 231/1/4 230/1/4 232/1/4
f 232/1/4 230/1/4 233/1/4
f 233/1/4 230/1/4 234/1/4
f 234/1/4 230/1/4 235/1/4
f 235/1/4 230/1/4 236/1/4
f 237/1/4 238/1/4 240/1/4
f 240/1/4 238/1/4 241/1/4
f 239/2/4 240/2/4 242/2/4
f 242/2/4 240/2/4 243/2/4
f 243/1/4 244/1/4 246/1/4
f 246/1/4 244/1/4 247/1/4
f 245/2/4 246/2/4 248/2/4
f 248/2/4 246/2/4 249/2/4
f 249/1/4 250/1/4 251/1/4
f 251/1/4 250/1/4 252/1/4
f 253/1/4 254/1/4 258/1/4
f 258/1/4 254/1/4 259/1/4
f 255/1/4 256/1/4 260/1/4
f 257/2/4 258/2/4 261/2/4
f 258/1/4 259/1/4 262/1/4
f 261/2/4 258/2/4 262/2/4
f 259/2/4 260/2/4 263/2/4
f 262/1/4 259/1/4 263/1/4
f 260/1/4 256/1/4 264/1/4
f 263/2/4 260/2/4 264/2/4
f 262/1/4 263/1/4 266/1/4
f 266/1/4 263/1/4 267/1/4
f 264/1/4 256/1/4 268/1/4
f 265/2/4 266/2/4 269/2/4
f 266/1/4 267/1/4 270/1/4
f 269/2/4 266/2/4 270/2/4
f 267/2/4 268/2/4 271/2/4
f 270/1/4 267/1/4 271/1/4
f 268/1/4 256/1/4 272/1/4
f 271/2/4 268/2/4 272/2/4
f 270/1/4 271/1/4 273/1/4
f 273/1/4 271/1/4 274/1/4
f 272/1/4 256/1/4 275/1/4
f 275/1/4 256/1/4 276/1/4
f 281/2/5 278/2/5 277/2/5
f 282/2/5 278/2/5 281/2/5
f 283/2/5 280/2/5 279/2/5
f 284/2/5 280/2/5 283/2/5
f 289/2/5 286/2/5 285/2/5
f 290/2/5 286/2/5 289/2/5
f 291/2/5 288/2/5 287/2/5
f 292/2/5 288/2/5 291/2/5
f 297/2/5 294/2/5 293/2/5
f 298/2/5 294/2/5 297/2/5
f 299/2/5 296/2/5 295/2/5
f 300/2/5 296/2/5 299/2/5
f 307/1/5 302/1/5 301/1/5
f 308/1/5 302/1/5 307/1/5
f 309/1/5 304/1/5 303/1/5
f 310/1/5 304/1/5 309/1/5
f 311/1/5 306/1/5 305/1/5
f 312/1/5 306/1/5 311/1/5
f 319/1/5 314/1/5 313/1/5
f 320/1/5 314/1/5 319/1/5
f 321/1/5 316/1/5 315/1/5
f 322/1/5 316/1/5 321/1/5
f 323/1/5 318/1/5 317/1/5
f 324/1/5 318/1/5 323/1/5
f 331/1/5 326/1/5 325/1/5
f 332/1/5 326/1/5 331/1/5
f 333/1/5 328/1/5 327/1/5
f 334/1/5 328/1/5 333/1/5
f 335/1/5 330/1/5 329/1/5
f 336/1/5 330/1/5 335/1/5
f 343/1/5 338/1/5 337/1/5
f 344/1/5 338/1/5 343/1/5
f 345/1/5 340/1/5 339/1/5
f 346/1/5 340/1/5 345/1/5
f 347/1/5 342/1/5 341/1/5
f 348/1/5 342/1/5 347/1/5
f 349/2/5 345/2/5 344/2/5
f 350/2/5 345/2/5 349/2/5
f 351/2/5 347/2/5 346/2/5
f 352/2/5 347/2/5 351/2/5
f 359/1/5 354/1/5 353/1/5
f 360/1/5 354/1/5 359/1/5
f 361/1/5 356/1/5 355/1/5
f 362/1/5 356/1/5 361/1/5
f 363/1/5 358/1/5 357/1/5
f 364/1/5 358/1/5 363/1/5
f 371/1/5 366/1/5 365/1/5
f 372/1/5 366/1/5 371/1/5
f 373/1/5 368/1/5 367/1/5
f 374/1/5 368/1/5 373/1/5
f 375/1/5 370/1/5 369/1/5
f 376/1/5 370/1/5 375/1/5
f 377/2/6 378/2/6 381/2/6
f 381/2/6 378/2/6 382/2/6
f 379/2/6 380/2/6 383/2/6
f 383/2/6 380/2/6 384/2/6
f 385/2/6 386/2/6 389/2/6
f 389/2/6 386/2/6 390/2/6
f 387/2/6 388/2/6 391/2/6
f 391/2/6 388/2/6 392/2/6
f 393/2/6 394/2/6 397/2/6
f 397/2/6 394/2/6 398/2/6
f 395/2/6 396/2/6 399/2/6
f 399/2/6 396/2/6 400/2/6
f 401/1/6 402/1/6 403/1/6
f 403/1/6 402/1/6 404/1/6
f 405/1/6 406/1/6 407/1/6
f 407/1/6 406/1/6 408/1/6
f 409/1/6 410/1/6 411/1/6
f 411/1/6 410/1/6 412/1/6
f 413/1/6 414/1/6 415/1/6
f 415/1/6 414/1/6 416/1/6
f 416/1/6 414/1/6 417/1/6
f 417/1/6 414/1/6 418/1/6
f 418/1/6 414/1/6 419/1/6
f 419/1/6 414/1/6 420/1/6
f 421/1/6 422/1/6 427/1/6
f 427/1/6 422/1/6 428/1/6
f 423/1/6 424/1/6 429/1/6
f 429/1/6 424/1/6 430/1/6
f 425/1/6 426/1/6 431/1/6
f 431/1/6 426/1/6 432/1/6
f 433/1/6 434/1/6 435/1/6
f 435/1/6 434/1/6 436/1/6
