# MagicaVoxel @ Ephtracy

# group
o 

# material
mtllib casa_carreteradoblar.mtl
usemtl palette

# normals
vn -1 0 0
vn 1 0 0
vn 0 0 1
vn 0 0 -1
vn 0 -1 0
vn 0 1 0

# texcoords
vt 0.0449219 0.5
vt 0.0488281 0.5
vt 0.0605469 0.5

# verts
v -2 0 2
v -2 0 1.6
v -2 0 -1.6
v -2 0 -2
v -2 0.1 1.6
v -2 0.1 -1.6
v -2 0.2 2
v -2 0.2 1.6
v -2 0.2 -1.6
v -2 0.2 -2
v 1.6 0.1 2
v 1.6 0.1 -2
v 1.6 0.2 2
v 1.6 0.2 -2
v -1.6 0.1 2
v -1.6 0.1 1.6
v -1.6 0.1 -1.6
v -1.6 0.1 -2
v -1.6 0.2 2
v -1.6 0.2 1.6
v -1.6 0.2 -1.6
v -1.6 0.2 -2
v 2 0 2
v 2 0 -2
v 2 0.2 2
v 2 0.2 -2
v -2 0 2
v -2 0.2 2
v -1.6 0 2
v -1.6 0.1 2
v -1.6 0.2 2
v -0.2 0 2
v -0.2 0.1 2
v 0.2 0 2
v 0.2 0.1 2
v 1.6 0 2
v 1.6 0.1 2
v 1.6 0.2 2
v 2 0 2
v 2 0.2 2
v -2 0.1 -1.6
v -2 0.2 -1.6
v -1.6 0.1 -1.6
v -1.6 0.2 -1.6
v -2 0.1 1.6
v -2 0.2 1.6
v -1.6 0.1 1.6
v -1.6 0.2 1.6
v -2 0 -2
v -2 0.2 -2
v -1.6 0 -2
v -1.6 0.1 -2
v -1.6 0.2 -2
v 1.6 0 -2
v 1.6 0.1 -2
v 1.6 0.2 -2
v 2 0 -2
v 2 0.2 -2
v -2 0 2
v -1.6 0 2
v -0.2 0 2
v 0.2 0 2
v 1.6 0 2
v 2 0 2
v -2 0 1.6
v -1.6 0 1.6
v -0.8 0 1.1
v -0.7 0 1.1
v -0.9 0 1
v -0.8 0 1
v -0.3 0 1
v -0.2 0 1
v -1 0 0.9
v -0.9 0 0.9
v -0.7 0 0.9
v -0.3 0 0.9
v -1.1 0 0.8
v -1 0 0.8
v -1.1 0 0.6
v -1 0 0.6
v -1 0 0.5
v -0.9 0 0.5
v -0.7 0 0.5
v -0.2 0 0.5
v -0.9 0 0.4
v -0.8 0 0.4
v -0.8 0 0.3
v -0.7 0 0.3
v -0.4 0 -0.3
v -0.2 0 -0.3
v 0.2 0 -0.3
v 0.4 0 -0.3
v -0.4 0 -0.4
v -0.3 0 -0.4
v 0.3 0 -0.4
v 0.4 0 -0.4
v -0.3 0 -0.5
v -0.2 0 -0.5
v 0.2 0 -0.5
v 0.3 0 -0.5
v -0.2 0 -0.6
v -0.0999999 0 -0.6
v 0.1 0 -0.6
v 0.2 0 -0.6
v -0.0999999 0 -0.7
v 0.1 0 -0.7
v -2 0 -1.6
v -1.6 0 -1.6
v -2 0 -2
v -1.6 0 -2
v 1.6 0 -2
v 2 0 -2
v -1.6 0.1 2
v -0.2 0.1 2
v 0.2 0.1 2
v 1.6 0.1 2
v -2 0.1 1.6
v -1.6 0.1 1.6
v -0.8 0.1 1.1
v -0.7 0.1 1.1
v -0.9 0.1 1
v -0.8 0.1 1
v -0.3 0.1 1
v -0.2 0.1 1
v -1 0.1 0.9
v -0.9 0.1 0.9
v -0.7 0.1 0.9
v -0.3 0.1 0.9
v -1.1 0.1 0.8
v -1 0.1 0.8
v -1.1 0.1 0.6
v -1 0.1 0.6
v -1 0.1 0.5
v -0.9 0.1 0.5
v -0.7 0.1 0.5
v -0.2 0.1 0.5
v -0.9 0.1 0.4
v -0.8 0.1 0.4
v -0.8 0.1 0.3
v -0.7 0.1 0.3
v -0.4 0.1 -0.3
v -0.2 0.1 -0.3
v 0.2 0.1 -0.3
v 0.4 0.1 -0.3
v -0.4 0.1 -0.4
v -0.3 0.1 -0.4
v 0.3 0.1 -0.4
v 0.4 0.1 -0.4
v -0.3 0.1 -0.5
v -0.2 0.1 -0.5
v 0.2 0.1 -0.5
v 0.3 0.1 -0.5
v -0.2 0.1 -0.6
v -0.0999999 0.1 -0.6
v 0.1 0.1 -0.6
v 0.2 0.1 -0.6
v -0.0999999 0.1 -0.7
v 0.1 0.1 -0.7
v -2 0.1 -1.6
v -1.6 0.1 -1.6
v -1.6 0.1 -2
v 1.6 0.1 -2
v -2 0.2 2
v -1.6 0.2 2
v 1.6 0.2 2
v 2 0.2 2
v -2 0.2 1.6
v -1.6 0.2 1.6
v -2 0.2 -1.6
v -1.6 0.2 -1.6
v -2 0.2 -2
v -1.6 0.2 -2
v 1.6 0.2 -2
v 2 0.2 -2

# faces
f 5/1/1 2/1/1 1/1/1
f 5/3/1 3/3/1 2/3/1
f 6/1/1 4/1/1 3/1/1
f 6/3/1 3/3/1 5/3/1
f 7/1/1 5/1/1 1/1/1
f 8/1/1 5/1/1 7/1/1
f 9/1/1 4/1/1 6/1/1
f 10/1/1 4/1/1 9/1/1
f 13/1/1 12/1/1 11/1/1
f 14/1/1 12/1/1 13/1/1
f 15/1/2 16/1/2 19/1/2
f 19/1/2 16/1/2 20/1/2
f 17/1/2 18/1/2 21/1/2
f 21/1/2 18/1/2 22/1/2
f 23/1/2 24/1/2 25/1/2
f 25/1/2 24/1/2 26/1/2
f 29/1/3 28/1/3 27/1/3
f 30/1/3 28/1/3 29/1/3
f 31/1/3 28/1/3 30/1/3
f 32/3/3 30/3/3 29/3/3
f 33/3/3 30/3/3 32/3/3
f 34/2/3 33/2/3 32/2/3
f 35/2/3 33/2/3 34/2/3
f 36/3/3 35/3/3 34/3/3
f 37/3/3 35/3/3 36/3/3
f 39/1/3 37/1/3 36/1/3
f 39/1/3 38/1/3 37/1/3
f 40/1/3 38/1/3 39/1/3
f 43/1/3 42/1/3 41/1/3
f 44/1/3 42/1/3 43/1/3
f 45/1/4 46/1/4 47/1/4
f 47/1/4 46/1/4 48/1/4
f 49/1/4 50/1/4 51/1/4
f 51/1/4 50/1/4 52/1/4
f 52/1/4 50/1/4 53/1/4
f 51/3/4 52/3/4 54/3/4
f 54/3/4 52/3/4 55/3/4
f 54/1/4 55/1/4 57/1/4
f 55/1/4 56/1/4 57/1/4
f 57/1/4 56/1/4 58/1/4
f 65/1/5 60/1/5 59/1/5
f 66/3/5 61/3/5 60/3/5
f 66/1/5 60/1/5 65/1/5
f 67/3/5 66/3/5 65/3/5
f 67/3/5 61/3/5 66/3/5
f 68/3/5 61/3/5 67/3/5
f 69/3/5 67/3/5 65/3/5
f 70/2/5 68/2/5 67/2/5
f 70/3/5 67/3/5 69/3/5
f 71/3/5 61/3/5 68/3/5
f 72/2/5 62/2/5 61/2/5
f 72/3/5 61/3/5 71/3/5
f 73/3/5 69/3/5 65/3/5
f 74/2/5 70/2/5 69/2/5
f 74/3/5 69/3/5 73/3/5
f 75/3/5 71/3/5 68/3/5
f 75/2/5 70/2/5 74/2/5
f 75/2/5 68/2/5 70/2/5
f 76/2/5 72/2/5 71/2/5
f 76/3/5 71/3/5 75/3/5
f 77/3/5 73/3/5 65/3/5
f 78/2/5 74/2/5 73/2/5
f 78/3/5 73/3/5 77/3/5
f 78/2/5 75/2/5 74/2/5
f 78/2/5 76/2/5 75/2/5
f 79/3/5 77/3/5 65/3/5
f 79/2/5 78/2/5 77/2/5
f 80/2/5 76/2/5 78/2/5
f 80/2/5 78/2/5 79/2/5
f 81/3/5 80/3/5 79/3/5
f 81/2/5 76/2/5 80/2/5
f 82/2/5 76/2/5 81/2/5
f 83/2/5 76/2/5 82/2/5
f 84/2/5 72/2/5 76/2/5
f 84/2/5 76/2/5 83/2/5
f 84/2/5 62/2/5 72/2/5
f 85/2/5 83/2/5 82/2/5
f 85/3/5 82/3/5 81/3/5
f 86/2/5 83/2/5 85/2/5
f 87/3/5 86/3/5 85/3/5
f 87/2/5 83/2/5 86/2/5
f 88/3/5 84/3/5 83/3/5
f 88/2/5 83/2/5 87/2/5
f 89/3/5 88/3/5 87/3/5
f 89/3/5 84/3/5 88/3/5
f 90/2/5 62/2/5 84/2/5
f 90/3/5 84/3/5 89/3/5
f 91/3/5 63/3/5 62/3/5
f 91/2/5 62/2/5 90/2/5
f 92/3/5 63/3/5 91/3/5
f 93/2/5 90/2/5 89/2/5
f 93/3/5 89/3/5 87/3/5
f 93/2/5 92/2/5 91/2/5
f 93/2/5 91/2/5 90/2/5
f 94/2/5 92/2/5 93/2/5
f 95/2/5 92/2/5 94/2/5
f 96/3/5 63/3/5 92/3/5
f 96/2/5 92/2/5 95/2/5
f 97/2/5 95/2/5 94/2/5
f 97/3/5 94/3/5 93/3/5
f 98/2/5 95/2/5 97/2/5
f 99/2/5 95/2/5 98/2/5
f 100/3/5 96/3/5 95/3/5
f 100/2/5 95/2/5 99/2/5
f 101/2/5 99/2/5 98/2/5
f 101/3/5 98/3/5 97/3/5
f 102/2/5 99/2/5 101/2/5
f 103/2/5 99/2/5 102/2/5
f 104/3/5 100/3/5 99/3/5
f 104/2/5 99/2/5 103/2/5
f 105/2/5 103/2/5 102/2/5
f 105/3/5 102/3/5 101/3/5
f 106/3/5 104/3/5 103/3/5
f 106/2/5 103/2/5 105/2/5
f 107/3/5 79/3/5 65/3/5
f 107/3/5 85/3/5 81/3/5
f 107/3/5 106/3/5 105/3/5
f 107/3/5 105/3/5 101/3/5
f 107/3/5 101/3/5 97/3/5
f 107/3/5 87/3/5 85/3/5
f 107/3/5 97/3/5 93/3/5
f 107/3/5 81/3/5 79/3/5
f 107/3/5 93/3/5 87/3/5
f 108/3/5 106/3/5 107/3/5
f 109/1/5 108/1/5 107/1/5
f 110/3/5 106/3/5 108/3/5
f 110/1/5 108/1/5 109/1/5
f 111/1/5 64/1/5 63/1/5
f 111/3/5 106/3/5 110/3/5
f 111/3/5 104/3/5 106/3/5
f 111/3/5 63/3/5 96/3/5
f 111/3/5 100/3/5 104/3/5
f 111/3/5 96/3/5 100/3/5
f 112/1/5 64/1/5 111/1/5
f 113/3/6 114/3/6 118/3/6
f 118/3/6 114/3/6 119/3/6
f 117/3/6 118/3/6 119/3/6
f 119/3/6 114/3/6 120/3/6
f 117/3/6 119/3/6 121/3/6
f 119/2/6 120/2/6 122/2/6
f 121/3/6 119/3/6 122/3/6
f 120/3/6 114/3/6 123/3/6
f 114/2/6 115/2/6 124/2/6
f 123/3/6 114/3/6 124/3/6
f 117/3/6 121/3/6 125/3/6
f 121/2/6 122/2/6 126/2/6
f 125/3/6 121/3/6 126/3/6
f 120/3/6 123/3/6 127/3/6
f 126/2/6 122/2/6 127/2/6
f 122/2/6 120/2/6 127/2/6
f 123/2/6 124/2/6 128/2/6
f 127/3/6 123/3/6 128/3/6
f 117/3/6 125/3/6 129/3/6
f 125/2/6 126/2/6 130/2/6
f 129/3/6 125/3/6 130/3/6
f 126/2/6 127/2/6 130/2/6
f 127/2/6 128/2/6 130/2/6
f 117/3/6 129/3/6 131/3/6
f 129/2/6 130/2/6 131/2/6
f 130/2/6 128/2/6 132/2/6
f 131/2/6 130/2/6 132/2/6
f 131/3/6 132/3/6 133/3/6
f 132/2/6 128/2/6 133/2/6
f 133/2/6 128/2/6 134/2/6
f 134/2/6 128/2/6 135/2/6
f 128/2/6 124/2/6 136/2/6
f 135/2/6 128/2/6 136/2/6
f 124/2/6 115/2/6 136/2/6
f 134/2/6 135/2/6 137/2/6
f 133/3/6 134/3/6 137/3/6
f 137/2/6 135/2/6 138/2/6
f 137/3/6 138/3/6 139/3/6
f 138/2/6 135/2/6 139/2/6
f 135/3/6 136/3/6 140/3/6
f 139/2/6 135/2/6 140/2/6
f 139/3/6 140/3/6 141/3/6
f 140/3/6 136/3/6 141/3/6
f 136/2/6 115/2/6 142/2/6
f 141/3/6 136/3/6 142/3/6
f 115/3/6 116/3/6 143/3/6
f 142/2/6 115/2/6 143/2/6
f 143/3/6 116/3/6 144/3/6
f 141/2/6 142/2/6 145/2/6
f 139/3/6 141/3/6 145/3/6
f 143/2/6 144/2/6 145/2/6
f 142/2/6 143/2/6 145/2/6
f 145/2/6 144/2/6 146/2/6
f 146/2/6 144/2/6 147/2/6
f 144/3/6 116/3/6 148/3/6
f 147/2/6 144/2/6 148/2/6
f 146/2/6 147/2/6 149/2/6
f 145/3/6 146/3/6 149/3/6
f 149/2/6 147/2/6 150/2/6
f 150/2/6 147/2/6 151/2/6
f 147/3/6 148/3/6 152/3/6
f 151/2/6 147/2/6 152/2/6
f 150/2/6 151/2/6 153/2/6
f 149/3/6 150/3/6 153/3/6
f 153/2/6 151/2/6 154/2/6
f 154/2/6 151/2/6 155/2/6
f 151/3/6 152/3/6 156/3/6
f 155/2/6 151/2/6 156/2/6
f 154/2/6 155/2/6 157/2/6
f 153/3/6 154/3/6 157/3/6
f 155/3/6 156/3/6 158/3/6
f 157/2/6 155/2/6 158/2/6
f 117/3/6 131/3/6 159/3/6
f 133/3/6 137/3/6 159/3/6
f 157/3/6 158/3/6 159/3/6
f 153/3/6 157/3/6 159/3/6
f 149/3/6 153/3/6 159/3/6
f 137/3/6 139/3/6 159/3/6
f 145/3/6 149/3/6 159/3/6
f 131/3/6 133/3/6 159/3/6
f 139/3/6 145/3/6 159/3/6
f 159/3/6 158/3/6 160/3/6
f 160/3/6 158/3/6 161/3/6
f 148/3/6 116/3/6 162/3/6
f 161/3/6 158/3/6 162/3/6
f 158/3/6 156/3/6 162/3/6
f 156/3/6 152/3/6 162/3/6
f 152/3/6 148/3/6 162/3/6
f 163/1/6 164/1/6 167/1/6
f 167/1/6 164/1/6 168/1/6
f 169/1/6 170/1/6 171/1/6
f 171/1/6 170/1/6 172/1/6
f 165/1/6 166/1/6 173/1/6
f 173/1/6 166/1/6 174/1/6
