# MagicaVoxel @ Ephtracy

# group
o 

# material
mtllib casa_caturr1-0.mtl
usemtl palette

# normals
vn -1 0 0
vn 1 0 0
vn 0 0 1
vn 0 0 -1
vn 0 -1 0
vn 0 1 0

# texcoords
vt 0.0605469 0.5
vt 0.103516 0.5
vt 0.134766 0.5

# verts
v -0.7 0 0.7
v -0.7 0 0.1
v -0.7 0 -0.1
v -0.7 0 -0.7
v -0.7 25.6 0.7
v -0.7 25.6 0.1
v -0.7 25.6 -0.1
v -0.7 25.6 -0.7
v -0.6 0 0.1
v -0.6 0 -0.1
v -0.6 4.8 0.1
v -0.6 4.8 -0.1
v -0.6 8.3 0.1
v -0.6 8.3 -0.1
v -0.6 11.6 0.1
v -0.6 11.6 -0.1
v -0.6 14.3 0.1
v -0.6 14.3 -0.1
v -0.6 16.4 0.1
v -0.6 16.4 -0.1
v -0.6 18.6 0.1
v -0.6 18.6 -0.1
v -0.6 20.3 0.1
v -0.6 20.3 -0.1
v -0.6 22.2 0.1
v -0.6 22.2 -0.1
v -0.6 23.9 0.1
v -0.6 23.9 -0.1
v -0.6 25.6 0.1
v -0.6 25.6 -0.1
v -0.5 0 0.8
v -0.5 0 0.7
v -0.5 0 -0.7
v -0.5 0 -0.8
v -0.5 25.6 0.8
v -0.5 25.6 0.7
v -0.5 25.6 -0.7
v -0.5 25.6 -0.8
v -0.3 0 -0.8
v -0.3 0 -0.9
v -0.3 25.6 -0.8
v -0.3 25.6 -0.9
v 0.2 0 0.7
v 0.2 0 0.6
v 0.2 0 -0.6
v 0.2 0 -0.7
v 0.2 25.6 0.7
v 0.2 25.6 0.6
v 0.2 25.6 -0.6
v 0.2 25.6 -0.7
v 0.4 0 0.6
v 0.4 0 0.5
v 0.4 0 -0.5
v 0.4 0 -0.6
v 0.4 25.6 0.6
v 0.4 25.6 0.5
v 0.4 25.6 -0.5
v 0.4 25.6 -0.6
v 0.5 0 0.5
v 0.5 0 0.3
v 0.5 0 0.1
v 0.5 0 -0.1
v 0.5 0 -0.3
v 0.5 0 -0.5
v 0.5 4.8 0.1
v 0.5 4.8 -0.1
v 0.5 8.3 0.1
v 0.5 8.3 -0.1
v 0.5 11.6 0.1
v 0.5 11.6 -0.1
v 0.5 14.3 0.1
v 0.5 14.3 -0.1
v 0.5 16.4 0.1
v 0.5 16.4 -0.1
v 0.5 18.6 0.1
v 0.5 18.6 -0.1
v 0.5 20.3 0.1
v 0.5 20.3 -0.1
v 0.5 22.2 0.1
v 0.5 22.2 -0.1
v 0.5 23.9 0.1
v 0.5 23.9 -0.1
v 0.5 25.6 0.5
v 0.5 25.6 0.3
v 0.5 25.6 0.1
v 0.5 25.6 -0.1
v 0.5 25.6 -0.3
v 0.5 25.6 -0.5
v 0.6 0 0.3
v 0.6 0 0.1
v 0.6 0 -0.1
v 0.6 0 -0.3
v 0.6 4.8 0.1
v 0.6 4.8 -0.1
v 0.6 8.3 0.1
v 0.6 8.3 -0.1
v 0.6 11.6 0.1
v 0.6 11.6 -0.1
v 0.6 14.3 0.1
v 0.6 14.3 -0.1
v 0.6 16.4 0.1
v 0.6 16.4 -0.1
v 0.6 18.6 0.1
v 0.6 18.6 -0.1
v 0.6 20.3 0.1
v 0.6 20.3 -0.1
v 0.6 22.2 0.1
v 0.6 22.2 -0.1
v 0.6 23.9 0.1
v 0.6 23.9 -0.1
v 0.6 25.6 0.3
v 0.6 25.6 0.1
v 0.6 25.6 -0.1
v 0.6 25.6 -0.3
v -0.6 0 0.3
v -0.6 0 0.1
v -0.6 0 -0.1
v -0.6 0 -0.3
v -0.6 4.8 0.1
v -0.6 4.8 -0.1
v -0.6 8.3 0.1
v -0.6 8.3 -0.1
v -0.6 11.6 0.1
v -0.6 11.6 -0.1
v -0.6 14.3 0.1
v -0.6 14.3 -0.1
v -0.6 16.4 0.1
v -0.6 16.4 -0.1
v -0.6 18.6 0.1
v -0.6 18.6 -0.1
v -0.6 20.3 0.1
v -0.6 20.3 -0.1
v -0.6 22.2 0.1
v -0.6 22.2 -0.1
v -0.6 23.9 0.1
v -0.6 23.9 -0.1
v -0.6 25.6 0.3
v -0.6 25.6 0.1
v -0.6 25.6 -0.1
v -0.6 25.6 -0.3
v -0.5 0 0.5
v -0.5 0 0.3
v -0.5 0 0.1
v -0.5 0 -0.1
v -0.5 0 -0.3
v -0.5 0 -0.5
v -0.5 4.8 0.1
v -0.5 4.8 -0.1
v -0.5 8.3 0.1
v -0.5 8.3 -0.1
v -0.5 11.6 0.1
v -0.5 11.6 -0.1
v -0.5 14.3 0.1
v -0.5 14.3 -0.1
v -0.5 16.4 0.1
v -0.5 16.4 -0.1
v -0.5 18.6 0.1
v -0.5 18.6 -0.1
v -0.5 20.3 0.1
v -0.5 20.3 -0.1
v -0.5 22.2 0.1
v -0.5 22.2 -0.1
v -0.5 23.9 0.1
v -0.5 23.9 -0.1
v -0.5 25.6 0.5
v -0.5 25.6 0.3
v -0.5 25.6 0.1
v -0.5 25.6 -0.1
v -0.5 25.6 -0.3
v -0.5 25.6 -0.5
v -0.4 0 0.6
v -0.4 0 0.5
v -0.4 0 -0.5
v -0.4 0 -0.6
v -0.4 25.6 0.6
v -0.4 25.6 0.5
v -0.4 25.6 -0.5
v -0.4 25.6 -0.6
v -0.2 0 0.7
v -0.2 0 0.6
v -0.2 0 -0.6
v -0.2 0 -0.7
v -0.2 25.6 0.7
v -0.2 25.6 0.6
v -0.2 25.6 -0.6
v -0.2 25.6 -0.7
v 0.3 0 -0.8
v 0.3 0 -0.9
v 0.3 25.6 -0.8
v 0.3 25.6 -0.9
v 0.5 0 0.8
v 0.5 0 0.7
v 0.5 0 -0.7
v 0.5 0 -0.8
v 0.5 25.6 0.8
v 0.5 25.6 0.7
v 0.5 25.6 -0.7
v 0.5 25.6 -0.8
v 0.6 0 0.1
v 0.6 0 -0.1
v 0.6 4.8 0.1
v 0.6 4.8 -0.1
v 0.6 8.3 0.1
v 0.6 8.3 -0.1
v 0.6 11.6 0.1
v 0.6 11.6 -0.1
v 0.6 14.3 0.1
v 0.6 14.3 -0.1
v 0.6 16.4 0.1
v 0.6 16.4 -0.1
v 0.6 18.6 0.1
v 0.6 18.6 -0.1
v 0.6 20.3 0.1
v 0.6 20.3 -0.1
v 0.6 22.2 0.1
v 0.6 22.2 -0.1
v 0.6 23.9 0.1
v 0.6 23.9 -0.1
v 0.6 25.6 0.1
v 0.6 25.6 -0.1
v 0.7 0 0.7
v 0.7 0 0.1
v 0.7 0 -0.1
v 0.7 0 -0.7
v 0.7 25.6 0.7
v 0.7 25.6 0.1
v 0.7 25.6 -0.1
v 0.7 25.6 -0.7
v -0.5 0 0.8
v -0.5 25.6 0.8
v 0.5 0 0.8
v 0.5 25.6 0.8
v -0.7 0 0.7
v -0.7 25.6 0.7
v -0.5 0 0.7
v -0.5 25.6 0.7
v 0.5 0 0.7
v 0.5 25.6 0.7
v 0.7 0 0.7
v 0.7 25.6 0.7
v -0.6 0 0.1
v -0.6 4.8 0.1
v -0.6 8.3 0.1
v -0.6 11.6 0.1
v -0.6 14.3 0.1
v -0.6 16.4 0.1
v -0.6 18.6 0.1
v -0.6 20.3 0.1
v -0.6 22.2 0.1
v -0.6 23.9 0.1
v -0.6 25.6 0.1
v -0.5 0 0.1
v -0.5 4.8 0.1
v -0.5 8.3 0.1
v -0.5 11.6 0.1
v -0.5 14.3 0.1
v -0.5 16.4 0.1
v -0.5 18.6 0.1
v -0.5 20.3 0.1
v -0.5 22.2 0.1
v -0.5 23.9 0.1
v -0.5 25.6 0.1
v 0.5 0 0.1
v 0.5 4.8 0.1
v 0.5 8.3 0.1
v 0.5 11.6 0.1
v 0.5 14.3 0.1
v 0.5 16.4 0.1
v 0.5 18.6 0.1
v 0.5 20.3 0.1
v 0.5 22.2 0.1
v 0.5 23.9 0.1
v 0.5 25.6 0.1
v 0.6 0 0.1
v 0.6 4.8 0.1
v 0.6 8.3 0.1
v 0.6 11.6 0.1
v 0.6 14.3 0.1
v 0.6 16.4 0.1
v 0.6 18.6 0.1
v 0.6 20.3 0.1
v 0.6 22.2 0.1
v 0.6 23.9 0.1
v 0.6 25.6 0.1
v -0.7 0 -0.1
v -0.7 25.6 -0.1
v -0.6 0 -0.1
v -0.6 4.8 -0.1
v -0.6 8.3 -0.1
v -0.6 11.6 -0.1
v -0.6 14.3 -0.1
v -0.6 16.4 -0.1
v -0.6 18.6 -0.1
v -0.6 20.3 -0.1
v -0.6 22.2 -0.1
v -0.6 23.9 -0.1
v -0.6 25.6 -0.1
v 0.6 0 -0.1
v 0.6 4.8 -0.1
v 0.6 8.3 -0.1
v 0.6 11.6 -0.1
v 0.6 14.3 -0.1
v 0.6 16.4 -0.1
v 0.6 18.6 -0.1
v 0.6 20.3 -0.1
v 0.6 22.2 -0.1
v 0.6 23.9 -0.1
v 0.6 25.6 -0.1
v 0.7 0 -0.1
v 0.7 25.6 -0.1
v -0.6 0 -0.3
v -0.6 25.6 -0.3
v -0.5 0 -0.3
v -0.5 25.6 -0.3
v 0.5 0 -0.3
v 0.5 25.6 -0.3
v 0.6 0 -0.3
v 0.6 25.6 -0.3
v -0.5 0 -0.5
v -0.5 25.6 -0.5
v -0.4 0 -0.5
v -0.4 25.6 -0.5
v 0.4 0 -0.5
v 0.4 25.6 -0.5
v 0.5 0 -0.5
v 0.5 25.6 -0.5
v -0.4 0 -0.6
v -0.4 25.6 -0.6
v -0.2 0 -0.6
v -0.2 25.6 -0.6
v 0.2 0 -0.6
v 0.2 25.6 -0.6
v 0.4 0 -0.6
v 0.4 25.6 -0.6
v -0.2 0 -0.7
v -0.2 25.6 -0.7
v 0.2 0 -0.7
v 0.2 25.6 -0.7
v -0.2 0 0.7
v -0.2 25.6 0.7
v 0.2 0 0.7
v 0.2 25.6 0.7
v -0.4 0 0.6
v -0.4 25.6 0.6
v -0.2 0 0.6
v -0.2 25.6 0.6
v 0.2 0 0.6
v 0.2 25.6 0.6
v 0.4 0 0.6
v 0.4 25.6 0.6
v -0.5 0 0.5
v -0.5 25.6 0.5
v -0.4 0 0.5
v -0.4 25.6 0.5
v 0.4 0 0.5
v 0.4 25.6 0.5
v 0.5 0 0.5
v 0.5 25.6 0.5
v -0.6 0 0.3
v -0.6 25.6 0.3
v -0.5 0 0.3
v -0.5 25.6 0.3
v 0.5 0 0.3
v 0.5 25.6 0.3
v 0.6 0 0.3
v 0.6 25.6 0.3
v -0.7 0 0.1
v -0.7 25.6 0.1
v -0.6 0 0.1
v -0.6 4.8 0.1
v -0.6 8.3 0.1
v -0.6 11.6 0.1
v -0.6 14.3 0.1
v -0.6 16.4 0.1
v -0.6 18.6 0.1
v -0.6 20.3 0.1
v -0.6 22.2 0.1
v -0.6 23.9 0.1
v -0.6 25.6 0.1
v 0.6 0 0.1
v 0.6 4.8 0.1
v 0.6 8.3 0.1
v 0.6 11.6 0.1
v 0.6 14.3 0.1
v 0.6 16.4 0.1
v 0.6 18.6 0.1
v 0.6 20.3 0.1
v 0.6 22.2 0.1
v 0.6 23.9 0.1
v 0.6 25.6 0.1
v 0.7 0 0.1
v 0.7 25.6 0.1
v -0.6 0 -0.1
v -0.6 4.8 -0.1
v -0.6 8.3 -0.1
v -0.6 11.6 -0.1
v -0.6 14.3 -0.1
v -0.6 16.4 -0.1
v -0.6 18.6 -0.1
v -0.6 20.3 -0.1
v -0.6 22.2 -0.1
v -0.6 23.9 -0.1
v -0.6 25.6 -0.1
v -0.5 0 -0.1
v -0.5 4.8 -0.1
v -0.5 8.3 -0.1
v -0.5 11.6 -0.1
v -0.5 14.3 -0.1
v -0.5 16.4 -0.1
v -0.5 18.6 -0.1
v -0.5 20.3 -0.1
v -0.5 22.2 -0.1
v -0.5 23.9 -0.1
v -0.5 25.6 -0.1
v 0.5 0 -0.1
v 0.5 4.8 -0.1
v 0.5 8.3 -0.1
v 0.5 11.6 -0.1
v 0.5 14.3 -0.1
v 0.5 16.4 -0.1
v 0.5 18.6 -0.1
v 0.5 20.3 -0.1
v 0.5 22.2 -0.1
v 0.5 23.9 -0.1
v 0.5 25.6 -0.1
v 0.6 0 -0.1
v 0.6 4.8 -0.1
v 0.6 8.3 -0.1
v 0.6 11.6 -0.1
v 0.6 14.3 -0.1
v 0.6 16.4 -0.1
v 0.6 18.6 -0.1
v 0.6 20.3 -0.1
v 0.6 22.2 -0.1
v 0.6 23.9 -0.1
v 0.6 25.6 -0.1
v -0.7 0 -0.7
v -0.7 25.6 -0.7
v -0.5 0 -0.7
v -0.5 25.6 -0.7
v 0.5 0 -0.7
v 0.5 25.6 -0.7
v 0.7 0 -0.7
v 0.7 25.6 -0.7
v -0.5 0 -0.8
v -0.5 25.6 -0.8
v -0.3 0 -0.8
v -0.3 25.6 -0.8
v 0.3 0 -0.8
v 0.3 25.6 -0.8
v 0.5 0 -0.8
v 0.5 25.6 -0.8
v -0.3 0 -0.9
v -0.3 25.6 -0.9
v 0.3 0 -0.9
v 0.3 25.6 -0.9
v -0.5 0 0.8
v 0.5 0 0.8
v -0.7 0 0.7
v -0.5 0 0.7
v -0.2 0 0.7
v 0.2 0 0.7
v 0.5 0 0.7
v 0.7 0 0.7
v -0.4 0 0.6
v -0.2 0 0.6
v 0.2 0 0.6
v 0.4 0 0.6
v -0.5 0 0.5
v -0.4 0 0.5
v 0.4 0 0.5
v 0.5 0 0.5
v -0.6 0 0.3
v -0.5 0 0.3
v 0.5 0 0.3
v 0.6 0 0.3
v -0.7 0 0.1
v -0.6 0 0.1
v -0.5 0 0.1
v 0.5 0 0.1
v 0.6 0 0.1
v 0.7 0 0.1
v -0.7 0 -0.1
v -0.6 0 -0.1
v -0.5 0 -0.1
v 0.5 0 -0.1
v 0.6 0 -0.1
v 0.7 0 -0.1
v -0.6 0 -0.3
v -0.5 0 -0.3
v 0.5 0 -0.3
v 0.6 0 -0.3
v -0.5 0 -0.5
v -0.4 0 -0.5
v 0.4 0 -0.5
v 0.5 0 -0.5
v -0.4 0 -0.6
v -0.2 0 -0.6
v 0.2 0 -0.6
v 0.4 0 -0.6
v -0.7 0 -0.7
v -0.5 0 -0.7
v -0.2 0 -0.7
v 0.2 0 -0.7
v 0.5 0 -0.7
v 0.7 0 -0.7
v -0.5 0 -0.8
v -0.3 0 -0.8
v 0.3 0 -0.8
v 0.5 0 -0.8
v -0.3 0 -0.9
v 0.3 0 -0.9
v -0.5 25.6 0.8
v 0.5 25.6 0.8
v -0.7 25.6 0.7
v -0.5 25.6 0.7
v -0.2 25.6 0.7
v 0.2 25.6 0.7
v 0.5 25.6 0.7
v 0.7 25.6 0.7
v -0.4 25.6 0.6
v -0.2 25.6 0.6
v 0.2 25.6 0.6
v 0.4 25.6 0.6
v -0.5 25.6 0.5
v -0.4 25.6 0.5
v 0.4 25.6 0.5
v 0.5 25.6 0.5
v -0.6 25.6 0.3
v -0.5 25.6 0.3
v 0.5 25.6 0.3
v 0.6 25.6 0.3
v -0.7 25.6 0.1
v -0.6 25.6 0.1
v -0.5 25.6 0.1
v 0.5 25.6 0.1
v 0.6 25.6 0.1
v 0.7 25.6 0.1
v -0.7 25.6 -0.1
v -0.6 25.6 -0.1
v -0.5 25.6 -0.1
v 0.5 25.6 -0.1
v 0.6 25.6 -0.1
v 0.7 25.6 -0.1
v -0.6 25.6 -0.3
v -0.5 25.6 -0.3
v 0.5 25.6 -0.3
v 0.6 25.6 -0.3
v -0.5 25.6 -0.5
v -0.4 25.6 -0.5
v 0.4 25.6 -0.5
v 0.5 25.6 -0.5
v -0.4 25.6 -0.6
v -0.2 25.6 -0.6
v 0.2 25.6 -0.6
v 0.4 25.6 -0.6
v -0.7 25.6 -0.7
v -0.5 25.6 -0.7
v -0.2 25.6 -0.7
v 0.2 25.6 -0.7
v 0.5 25.6 -0.7
v 0.7 25.6 -0.7
v -0.5 25.6 -0.8
v -0.3 25.6 -0.8
v 0.3 25.6 -0.8
v 0.5 25.6 -0.8
v -0.3 25.6 -0.9
v 0.3 25.6 -0.9

# faces
f 5/1/1 2/1/1 1/1/1
f 6/1/1 2/1/1 5/1/1
f 7/1/1 4/1/1 3/1/1
f 8/1/1 4/1/1 7/1/1
f 11/2/1 10/2/1 9/2/1
f 12/2/1 10/2/1 11/2/1
f 13/3/1 12/3/1 11/3/1
f 14/3/1 12/3/1 13/3/1
f 15/2/1 14/2/1 13/2/1
f 16/2/1 14/2/1 15/2/1
f 17/3/1 16/3/1 15/3/1
f 18/3/1 16/3/1 17/3/1
f 19/2/1 18/2/1 17/2/1
f 20/2/1 18/2/1 19/2/1
f 21/3/1 20/3/1 19/3/1
f 22/3/1 20/3/1 21/3/1
f 23/2/1 22/2/1 21/2/1
f 24/2/1 22/2/1 23/2/1
f 25/3/1 24/3/1 23/3/1
f 26/3/1 24/3/1 25/3/1
f 27/2/1 26/2/1 25/2/1
f 28/2/1 26/2/1 27/2/1
f 29/3/1 28/3/1 27/3/1
f 30/3/1 28/3/1 29/3/1
f 35/1/1 32/1/1 31/1/1
f 36/1/1 32/1/1 35/1/1
f 37/1/1 34/1/1 33/1/1
f 38/1/1 34/1/1 37/1/1
f 41/1/1 40/1/1 39/1/1
f 42/1/1 40/1/1 41/1/1
f 47/1/1 44/1/1 43/1/1
f 48/1/1 44/1/1 47/1/1
f 49/1/1 46/1/1 45/1/1
f 50/1/1 46/1/1 49/1/1
f 55/1/1 52/1/1 51/1/1
f 56/1/1 52/1/1 55/1/1
f 57/1/1 54/1/1 53/1/1
f 58/1/1 54/1/1 57/1/1
f 65/2/1 62/2/1 61/2/1
f 66/2/1 62/2/1 65/2/1
f 67/3/1 66/3/1 65/3/1
f 68/3/1 66/3/1 67/3/1
f 69/2/1 68/2/1 67/2/1
f 70/2/1 68/2/1 69/2/1
f 71/3/1 70/3/1 69/3/1
f 72/3/1 70/3/1 71/3/1
f 73/2/1 72/2/1 71/2/1
f 74/2/1 72/2/1 73/2/1
f 75/3/1 74/3/1 73/3/1
f 76/3/1 74/3/1 75/3/1
f 77/2/1 76/2/1 75/2/1
f 78/2/1 76/2/1 77/2/1
f 79/3/1 78/3/1 77/3/1
f 80/3/1 78/3/1 79/3/1
f 81/2/1 80/2/1 79/2/1
f 82/2/1 80/2/1 81/2/1
f 83/1/1 60/1/1 59/1/1
f 84/1/1 60/1/1 83/1/1
f 85/3/1 82/3/1 81/3/1
f 86/3/1 82/3/1 85/3/1
f 87/1/1 64/1/1 63/1/1
f 88/1/1 64/1/1 87/1/1
f 93/1/1 90/1/1 89/1/1
f 94/1/1 92/1/1 91/1/1
f 95/1/1 93/1/1 89/1/1
f 96/1/1 92/1/1 94/1/1
f 97/1/1 95/1/1 89/1/1
f 98/1/1 92/1/1 96/1/1
f 99/1/1 97/1/1 89/1/1
f 100/1/1 92/1/1 98/1/1
f 101/1/1 99/1/1 89/1/1
f 102/1/1 92/1/1 100/1/1
f 103/1/1 101/1/1 89/1/1
f 104/1/1 92/1/1 102/1/1
f 105/1/1 103/1/1 89/1/1
f 106/1/1 92/1/1 104/1/1
f 107/1/1 105/1/1 89/1/1
f 108/1/1 92/1/1 106/1/1
f 109/1/1 107/1/1 89/1/1
f 110/1/1 92/1/1 108/1/1
f 111/1/1 109/1/1 89/1/1
f 112/1/1 109/1/1 111/1/1
f 113/1/1 92/1/1 110/1/1
f 114/1/1 92/1/1 113/1/1
f 115/1/2 116/1/2 119/1/2
f 117/1/2 118/1/2 120/1/2
f 115/1/2 119/1/2 121/1/2
f 120/1/2 118/1/2 122/1/2
f 115/1/2 121/1/2 123/1/2
f 122/1/2 118/1/2 124/1/2
f 115/1/2 123/1/2 125/1/2
f 124/1/2 118/1/2 126/1/2
f 115/1/2 125/1/2 127/1/2
f 126/1/2 118/1/2 128/1/2
f 115/1/2 127/1/2 129/1/2
f 128/1/2 118/1/2 130/1/2
f 115/1/2 129/1/2 131/1/2
f 130/1/2 118/1/2 132/1/2
f 115/1/2 131/1/2 133/1/2
f 132/1/2 118/1/2 134/1/2
f 115/1/2 133/1/2 135/1/2
f 134/1/2 118/1/2 136/1/2
f 115/1/2 135/1/2 137/1/2
f 137/1/2 135/1/2 138/1/2
f 136/1/2 118/1/2 139/1/2
f 139/1/2 118/1/2 140/1/2
f 143/2/2 144/2/2 147/2/2
f 147/2/2 144/2/2 148/2/2
f 147/3/2 148/3/2 149/3/2
f 149/3/2 148/3/2 150/3/2
f 149/2/2 150/2/2 151/2/2
f 151/2/2 150/2/2 152/2/2
f 151/3/2 152/3/2 153/3/2
f 153/3/2 152/3/2 154/3/2
f 153/2/2 154/2/2 155/2/2
f 155/2/2 154/2/2 156/2/2
f 155/3/2 156/3/2 157/3/2
f 157/3/2 156/3/2 158/3/2
f 157/2/2 158/2/2 159/2/2
f 159/2/2 158/2/2 160/2/2
f 159/3/2 160/3/2 161/3/2
f 161/3/2 160/3/2 162/3/2
f 161/2/2 162/2/2 163/2/2
f 163/2/2 162/2/2 164/2/2
f 141/1/2 142/1/2 165/1/2
f 165/1/2 142/1/2 166/1/2
f 163/3/2 164/3/2 167/3/2
f 167/3/2 164/3/2 168/3/2
f 145/1/2 146/1/2 169/1/2
f 169/1/2 146/1/2 170/1/2
f 171/1/2 172/1/2 175/1/2
f 175/1/2 172/1/2 176/1/2
f 173/1/2 174/1/2 177/1/2
f 177/1/2 174/1/2 178/1/2
f 179/1/2 180/1/2 183/1/2
f 183/1/2 180/1/2 184/1/2
f 181/1/2 182/1/2 185/1/2
f 185/1/2 182/1/2 186/1/2
f 187/1/2 188/1/2 189/1/2
f 189/1/2 188/1/2 190/1/2
f 191/1/2 192/1/2 195/1/2
f 195/1/2 192/1/2 196/1/2
f 193/1/2 194/1/2 197/1/2
f 197/1/2 194/1/2 198/1/2
f 199/2/2 200/2/2 201/2/2
f 201/2/2 200/2/2 202/2/2
f 201/3/2 202/3/2 203/3/2
f 203/3/2 202/3/2 204/3/2
f 203/2/2 204/2/2 205/2/2
f 205/2/2 204/2/2 206/2/2
f 205/3/2 206/3/2 207/3/2
f 207/3/2 206/3/2 208/3/2
f 207/2/2 208/2/2 209/2/2
f 209/2/2 208/2/2 210/2/2
f 209/3/2 210/3/2 211/3/2
f 211/3/2 210/3/2 212/3/2
f 211/2/2 212/2/2 213/2/2
f 213/2/2 212/2/2 214/2/2
f 213/3/2 214/3/2 215/3/2
f 215/3/2 214/3/2 216/3/2
f 215/2/2 216/2/2 217/2/2
f 217/2/2 216/2/2 218/2/2
f 217/3/2 218/3/2 219/3/2
f 219/3/2 218/3/2 220/3/2
f 221/1/2 222/1/2 225/1/2
f 225/1/2 222/1/2 226/1/2
f 223/1/2 224/1/2 227/1/2
f 227/1/2 224/1/2 228/1/2
f 231/1/3 230/1/3 229/1/3
f 232/1/3 230/1/3 231/1/3
f 235/1/3 234/1/3 233/1/3
f 236/1/3 234/1/3 235/1/3
f 239/1/3 238/1/3 237/1/3
f 240/1/3 238/1/3 239/1/3
f 252/2/3 242/2/3 241/2/3
f 253/3/3 243/3/3 242/3/3
f 253/2/3 242/2/3 252/2/3
f 254/2/3 244/2/3 243/2/3
f 254/3/3 243/3/3 253/3/3
f 255/3/3 245/3/3 244/3/3
f 255/2/3 244/2/3 254/2/3
f 256/2/3 246/2/3 245/2/3
f 256/3/3 245/3/3 255/3/3
f 257/3/3 247/3/3 246/3/3
f 257/2/3 246/2/3 256/2/3
f 258/2/3 248/2/3 247/2/3
f 258/3/3 247/3/3 257/3/3
f 259/3/3 249/3/3 248/3/3
f 259/2/3 248/2/3 258/2/3
f 260/2/3 250/2/3 249/2/3
f 260/3/3 249/3/3 259/3/3
f 261/3/3 251/3/3 250/3/3
f 261/2/3 250/2/3 260/2/3
f 262/3/3 251/3/3 261/3/3
f 274/2/3 264/2/3 263/2/3
f 275/3/3 265/3/3 264/3/3
f 275/2/3 264/2/3 274/2/3
f 276/2/3 266/2/3 265/2/3
f 276/3/3 265/3/3 275/3/3
f 277/3/3 267/3/3 266/3/3
f 277/2/3 266/2/3 276/2/3
f 278/2/3 268/2/3 267/2/3
f 278/3/3 267/3/3 277/3/3
f 279/3/3 269/3/3 268/3/3
f 279/2/3 268/2/3 278/2/3
f 280/2/3 270/2/3 269/2/3
f 280/3/3 269/3/3 279/3/3
f 281/3/3 271/3/3 270/3/3
f 281/2/3 270/2/3 280/2/3
f 282/2/3 272/2/3 271/2/3
f 282/3/3 271/3/3 281/3/3
f 283/3/3 273/3/3 272/3/3
f 283/2/3 272/2/3 282/2/3
f 284/3/3 273/3/3 283/3/3
f 287/1/3 286/1/3 285/1/3
f 288/1/3 286/1/3 287/1/3
f 289/1/3 286/1/3 288/1/3
f 290/1/3 286/1/3 289/1/3
f 291/1/3 286/1/3 290/1/3
f 292/1/3 286/1/3 291/1/3
f 293/1/3 286/1/3 292/1/3
f 294/1/3 286/1/3 293/1/3
f 295/1/3 286/1/3 294/1/3
f 296/1/3 286/1/3 295/1/3
f 297/1/3 286/1/3 296/1/3
f 309/1/3 299/1/3 298/1/3
f 309/1/3 308/1/3 307/1/3
f 309/1/3 307/1/3 306/1/3
f 309/1/3 306/1/3 305/1/3
f 309/1/3 305/1/3 304/1/3
f 309/1/3 304/1/3 303/1/3
f 309/1/3 303/1/3 302/1/3
f 309/1/3 302/1/3 301/1/3
f 309/1/3 301/1/3 300/1/3
f 309/1/3 300/1/3 299/1/3
f 310/1/3 308/1/3 309/1/3
f 313/1/3 312/1/3 311/1/3
f 314/1/3 312/1/3 313/1/3
f 317/1/3 316/1/3 315/1/3
f 318/1/3 316/1/3 317/1/3
f 321/1/3 320/1/3 319/1/3
f 322/1/3 320/1/3 321/1/3
f 325/1/3 324/1/3 323/1/3
f 326/1/3 324/1/3 325/1/3
f 329/1/3 328/1/3 327/1/3
f 330/1/3 328/1/3 329/1/3
f 333/1/3 332/1/3 331/1/3
f 334/1/3 332/1/3 333/1/3
f 337/1/3 336/1/3 335/1/3
f 338/1/3 336/1/3 337/1/3
f 339/1/4 340/1/4 341/1/4
f 341/1/4 340/1/4 342/1/4
f 343/1/4 344/1/4 345/1/4
f 345/1/4 344/1/4 346/1/4
f 347/1/4 348/1/4 349/1/4
f 349/1/4 348/1/4 350/1/4
f 351/1/4 352/1/4 353/1/4
f 353/1/4 352/1/4 354/1/4
f 355/1/4 356/1/4 357/1/4
f 357/1/4 356/1/4 358/1/4
f 359/1/4 360/1/4 361/1/4
f 361/1/4 360/1/4 362/1/4
f 363/1/4 364/1/4 365/1/4
f 365/1/4 364/1/4 366/1/4
f 367/1/4 368/1/4 369/1/4
f 369/1/4 368/1/4 370/1/4
f 370/1/4 368/1/4 371/1/4
f 371/1/4 368/1/4 372/1/4
f 372/1/4 368/1/4 373/1/4
f 373/1/4 368/1/4 374/1/4
f 374/1/4 368/1/4 375/1/4
f 375/1/4 368/1/4 376/1/4
f 376/1/4 368/1/4 377/1/4
f 377/1/4 368/1/4 378/1/4
f 378/1/4 368/1/4 379/1/4
f 380/1/4 381/1/4 391/1/4
f 389/1/4 390/1/4 391/1/4
f 388/1/4 389/1/4 391/1/4
f 387/1/4 388/1/4 391/1/4
f 386/1/4 387/1/4 391/1/4
f 385/1/4 386/1/4 391/1/4
f 384/1/4 385/1/4 391/1/4
f 383/1/4 384/1/4 391/1/4
f 382/1/4 383/1/4 391/1/4
f 381/1/4 382/1/4 391/1/4
f 391/1/4 390/1/4 392/1/4
f 393/2/4 394/2/4 404/2/4
f 394/3/4 395/3/4 405/3/4
f 404/2/4 394/2/4 405/2/4
f 395/2/4 396/2/4 406/2/4
f 405/3/4 395/3/4 406/3/4
f 396/3/4 397/3/4 407/3/4
f 406/2/4 396/2/4 407/2/4
f 397/2/4 398/2/4 408/2/4
f 407/3/4 397/3/4 408/3/4
f 398/3/4 399/3/4 409/3/4
f 408/2/4 398/2/4 409/2/4
f 399/2/4 400/2/4 410/2/4
f 409/3/4 399/3/4 410/3/4
f 400/3/4 401/3/4 411/3/4
f 410/2/4 400/2/4 411/2/4
f 401/2/4 402/2/4 412/2/4
f 411/3/4 401/3/4 412/3/4
f 402/3/4 403/3/4 413/3/4
f 412/2/4 402/2/4 413/2/4
f 413/3/4 403/3/4 414/3/4
f 415/2/4 416/2/4 426/2/4
f 416/3/4 417/3/4 427/3/4
f 426/2/4 416/2/4 427/2/4
f 417/2/4 418/2/4 428/2/4
f 427/3/4 417/3/4 428/3/4
f 418/3/4 419/3/4 429/3/4
f 428/2/4 418/2/4 429/2/4
f 419/2/4 420/2/4 430/2/4
f 429/3/4 419/3/4 430/3/4
f 420/3/4 421/3/4 431/3/4
f 430/2/4 420/2/4 431/2/4
f 421/2/4 422/2/4 432/2/4
f 431/3/4 421/3/4 432/3/4
f 422/3/4 423/3/4 433/3/4
f 432/2/4 422/2/4 433/2/4
f 423/2/4 424/2/4 434/2/4
f 433/3/4 423/3/4 434/3/4
f 424/3/4 425/3/4 435/3/4
f 434/2/4 424/2/4 435/2/4
f 435/3/4 425/3/4 436/3/4
f 437/1/4 438/1/4 439/1/4
f 439/1/4 438/1/4 440/1/4
f 441/1/4 442/1/4 443/1/4
f 443/1/4 442/1/4 444/1/4
f 445/1/4 446/1/4 447/1/4
f 447/1/4 446/1/4 448/1/4
f 449/1/4 450/1/4 451/1/4
f 451/1/4 450/1/4 452/1/4
f 453/1/4 454/1/4 455/1/4
f 455/1/4 454/1/4 456/1/4
f 460/1/5 458/1/5 457/1/5
f 461/1/5 458/1/5 460/1/5
f 462/1/5 458/1/5 461/1/5
f 463/1/5 458/1/5 462/1/5
f 465/1/5 460/1/5 459/1/5
f 465/1/5 461/1/5 460/1/5
f 466/1/5 461/1/5 465/1/5
f 467/1/5 464/1/5 463/1/5
f 467/1/5 463/1/5 462/1/5
f 468/1/5 464/1/5 467/1/5
f 469/1/5 465/1/5 459/1/5
f 470/1/5 465/1/5 469/1/5
f 471/1/5 464/1/5 468/1/5
f 472/1/5 464/1/5 471/1/5
f 473/1/5 469/1/5 459/1/5
f 474/1/5 469/1/5 473/1/5
f 475/1/5 464/1/5 472/1/5
f 476/1/5 464/1/5 475/1/5
f 477/1/5 473/1/5 459/1/5
f 478/1/5 473/1/5 477/1/5
f 481/1/5 464/1/5 476/1/5
f 482/1/5 464/1/5 481/1/5
f 484/2/5 479/2/5 478/2/5
f 485/2/5 479/2/5 484/2/5
f 486/2/5 481/2/5 480/2/5
f 487/2/5 481/2/5 486/2/5
f 489/1/5 484/1/5 483/1/5
f 492/1/5 488/1/5 487/1/5
f 493/1/5 490/1/5 489/1/5
f 496/1/5 492/1/5 491/1/5
f 497/1/5 494/1/5 493/1/5
f 500/1/5 496/1/5 495/1/5
f 501/1/5 498/1/5 497/1/5
f 501/1/5 489/1/5 483/1/5
f 501/1/5 493/1/5 489/1/5
f 501/1/5 497/1/5 493/1/5
f 502/1/5 498/1/5 501/1/5
f 503/1/5 498/1/5 502/1/5
f 504/1/5 500/1/5 499/1/5
f 505/1/5 496/1/5 500/1/5
f 505/1/5 492/1/5 496/1/5
f 505/1/5 500/1/5 504/1/5
f 506/1/5 488/1/5 492/1/5
f 506/1/5 492/1/5 505/1/5
f 507/1/5 503/1/5 502/1/5
f 507/1/5 504/1/5 503/1/5
f 507/1/5 505/1/5 504/1/5
f 508/1/5 505/1/5 507/1/5
f 509/1/5 505/1/5 508/1/5
f 510/1/5 505/1/5 509/1/5
f 511/1/5 509/1/5 508/1/5
f 512/1/5 509/1/5 511/1/5
f 513/1/6 514/1/6 516/1/6
f 516/1/6 514/1/6 517/1/6
f 517/1/6 514/1/6 518/1/6
f 518/1/6 514/1/6 519/1/6
f 515/1/6 516/1/6 521/1/6
f 516/1/6 517/1/6 521/1/6
f 521/1/6 517/1/6 522/1/6
f 519/1/6 520/1/6 523/1/6
f 518/1/6 519/1/6 523/1/6
f 523/1/6 520/1/6 524/1/6
f 515/1/6 521/1/6 525/1/6
f 525/1/6 521/1/6 526/1/6
f 524/1/6 520/1/6 527/1/6
f 527/1/6 520/1/6 528/1/6
f 515/1/6 525/1/6 529/1/6
f 529/1/6 525/1/6 530/1/6
f 528/1/6 520/1/6 531/1/6
f 531/1/6 520/1/6 532/1/6
f 515/1/6 529/1/6 533/1/6
f 533/1/6 529/1/6 534/1/6
f 532/1/6 520/1/6 537/1/6
f 537/1/6 520/1/6 538/1/6
f 534/3/6 535/3/6 540/3/6
f 540/3/6 535/3/6 541/3/6
f 536/3/6 537/3/6 542/3/6
f 542/3/6 537/3/6 543/3/6
f 539/1/6 540/1/6 545/1/6
f 543/1/6 544/1/6 548/1/6
f 545/1/6 546/1/6 549/1/6
f 547/1/6 548/1/6 552/1/6
f 549/1/6 550/1/6 553/1/6
f 551/1/6 552/1/6 556/1/6
f 553/1/6 554/1/6 557/1/6
f 539/1/6 545/1/6 557/1/6
f 545/1/6 549/1/6 557/1/6
f 549/1/6 553/1/6 557/1/6
f 557/1/6 554/1/6 558/1/6
f 558/1/6 554/1/6 559/1/6
f 555/1/6 556/1/6 560/1/6
f 556/1/6 552/1/6 561/1/6
f 552/1/6 548/1/6 561/1/6
f 560/1/6 556/1/6 561/1/6
f 548/1/6 544/1/6 562/1/6
f 561/1/6 548/1/6 562/1/6
f 558/1/6 559/1/6 563/1/6
f 559/1/6 560/1/6 563/1/6
f 560/1/6 561/1/6 563/1/6
f 563/1/6 561/1/6 564/1/6
f 564/1/6 561/1/6 565/1/6
f 565/1/6 561/1/6 566/1/6
f 564/1/6 565/1/6 567/1/6
f 567/1/6 565/1/6 568/1/6
