# MagicaVoxel @ Ephtracy

# group
o 

# material
mtllib casa_carreteravirada-0.mtl
usemtl palette

# normals
vn -1 0 0
vn 1 0 0
vn 0 0 1
vn 0 0 -1
vn 0 -1 0
vn 0 1 0

# texcoords
vt 0.0449219 0.5
vt 0.0566406 0.5
vt 0.0605469 0.5

# verts
v -2 0 -2
v -2 0 -6
v -2 0.2 -2
v -2 0.2 -6
v 1.6 0.1 -2
v 1.6 0.1 -2.4
v 1.6 0.2 -2
v 1.6 0.2 -2.4
v -1.6 0.1 -2
v -1.6 0.1 -5.6
v -1.6 0.2 -2
v -1.6 0.2 -5.6
v 2 0 -2
v 2 0 -2.4
v 2 0 -3.9
v 2 0 -4.1
v 2 0 -5.6
v 2 0 -6
v 2 0.1 -2.4
v 2 0.1 -3.9
v 2 0.1 -4.1
v 2 0.1 -5.6
v 2 0.2 -2
v 2 0.2 -2.4
v 2 0.2 -5.6
v 2 0.2 -6
v -2 0 -2
v -2 0.2 -2
v -1.6 0 -2
v -1.6 0.1 -2
v -1.6 0.2 -2
v -0.0999999 0 -2
v -0.0999999 0.1 -2
v 0.1 0 -2
v 0.1 0.1 -2
v 1.6 0 -2
v 1.6 0.1 -2
v 1.6 0.2 -2
v 2 0 -2
v 2 0.2 -2
v -1.6 0.1 -5.6
v -1.6 0.2 -5.6
v 2 0.1 -5.6
v 2 0.2 -5.6
v 1.6 0.1 -2.4
v 1.6 0.2 -2.4
v 2 0.1 -2.4
v 2 0.2 -2.4
v -2 0 -6
v -2 0.2 -6
v 2 0 -6
v 2 0.2 -6
v -2 0 -2
v -1.6 0 -2
v -0.0999999 0 -2
v 0.1 0 -2
v 1.6 0 -2
v 2 0 -2
v 1.6 0 -2.4
v 2 0 -2.4
v -0.0999999 0 -2.7
v 0.1 0 -2.7
v -0.0999999 0 -3.3
v 0.1 0 -3.3
v 0.1 0 -3.9
v 0.7 0 -3.9
v 1.3 0 -3.9
v 2 0 -3.9
v -0.0999999 0 -4.1
v 0.7 0 -4.1
v 1.3 0 -4.1
v 2 0 -4.1
v -1.6 0 -5.6
v 2 0 -5.6
v -2 0 -6
v 2 0 -6
v -1.6 0.1 -2
v -0.0999999 0.1 -2
v 0.1 0.1 -2
v 1.6 0.1 -2
v 1.6 0.1 -2.4
v 2 0.1 -2.4
v -0.0999999 0.1 -2.7
v 0.1 0.1 -2.7
v -0.0999999 0.1 -3.3
v 0.1 0.1 -3.3
v 0.1 0.1 -3.9
v 0.7 0.1 -3.9
v 1.3 0.1 -3.9
v 2 0.1 -3.9
v -0.0999999 0.1 -4.1
v 0.7 0.1 -4.1
v 1.3 0.1 -4.1
v 2 0.1 -4.1
v -1.6 0.1 -5.6
v 2 0.1 -5.6
v -2 0.2 -2
v -1.6 0.2 -2
v 1.6 0.2 -2
v 2 0.2 -2
v 1.6 0.2 -2.4
v 2 0.2 -2.4
v -1.6 0.2 -5.6
v 2 0.2 -5.6
v -2 0.2 -6
v 2 0.2 -6

# faces
f 3/1/1 2/1/1 1/1/1
f 4/1/1 2/1/1 3/1/1
f 7/1/1 6/1/1 5/1/1
f 8/1/1 6/1/1 7/1/1
f 9/1/2 10/1/2 11/1/2
f 11/1/2 10/1/2 12/1/2
f 13/1/2 14/1/2 19/1/2
f 14/3/2 15/3/2 19/3/2
f 15/2/2 16/2/2 20/2/2
f 19/3/2 15/3/2 20/3/2
f 16/3/2 17/3/2 21/3/2
f 20/2/2 16/2/2 21/2/2
f 17/1/2 18/1/2 22/1/2
f 21/3/2 17/3/2 22/3/2
f 13/1/2 19/1/2 23/1/2
f 23/1/2 19/1/2 24/1/2
f 22/1/2 18/1/2 25/1/2
f 25/1/2 18/1/2 26/1/2
f 29/1/3 28/1/3 27/1/3
f 30/1/3 28/1/3 29/1/3
f 31/1/3 28/1/3 30/1/3
f 32/3/3 30/3/3 29/3/3
f 33/3/3 30/3/3 32/3/3
f 34/2/3 33/2/3 32/2/3
f 35/2/3 33/2/3 34/2/3
f 36/3/3 35/3/3 34/3/3
f 37/3/3 35/3/3 36/3/3
f 39/1/3 37/1/3 36/1/3
f 39/1/3 38/1/3 37/1/3
f 40/1/3 38/1/3 39/1/3
f 43/1/3 42/1/3 41/1/3
f 44/1/3 42/1/3 43/1/3
f 45/1/4 46/1/4 47/1/4
f 47/1/4 46/1/4 48/1/4
f 49/1/4 50/1/4 51/1/4
f 51/1/4 50/1/4 52/1/4
f 59/3/5 57/3/5 56/3/5
f 59/1/5 58/1/5 57/1/5
f 60/1/5 58/1/5 59/1/5
f 61/3/5 55/3/5 54/3/5
f 61/2/5 56/2/5 55/2/5
f 62/3/5 60/3/5 59/3/5
f 62/2/5 56/2/5 61/2/5
f 62/3/5 59/3/5 56/3/5
f 63/3/5 61/3/5 54/3/5
f 63/3/5 62/3/5 61/3/5
f 64/3/5 60/3/5 62/3/5
f 64/3/5 62/3/5 63/3/5
f 65/2/5 64/2/5 63/2/5
f 65/3/5 60/3/5 64/3/5
f 66/3/5 60/3/5 65/3/5
f 67/3/5 60/3/5 66/3/5
f 68/3/5 60/3/5 67/3/5
f 69/3/5 63/3/5 54/3/5
f 69/2/5 65/2/5 63/2/5
f 69/2/5 66/2/5 65/2/5
f 70/3/5 67/3/5 66/3/5
f 70/2/5 66/2/5 69/2/5
f 71/2/5 68/2/5 67/2/5
f 71/3/5 67/3/5 70/3/5
f 72/2/5 68/2/5 71/2/5
f 73/1/5 54/1/5 53/1/5
f 73/3/5 70/3/5 69/3/5
f 73/3/5 72/3/5 71/3/5
f 73/3/5 71/3/5 70/3/5
f 73/3/5 69/3/5 54/3/5
f 74/3/5 72/3/5 73/3/5
f 75/1/5 73/1/5 53/1/5
f 75/1/5 74/1/5 73/1/5
f 76/1/5 74/1/5 75/1/5
f 79/3/6 80/3/6 81/3/6
f 77/3/6 78/3/6 83/3/6
f 78/2/6 79/2/6 83/2/6
f 81/3/6 82/3/6 84/3/6
f 83/2/6 79/2/6 84/2/6
f 79/3/6 81/3/6 84/3/6
f 77/3/6 83/3/6 85/3/6
f 83/3/6 84/3/6 85/3/6
f 84/3/6 82/3/6 86/3/6
f 85/3/6 84/3/6 86/3/6
f 85/2/6 86/2/6 87/2/6
f 86/3/6 82/3/6 87/3/6
f 87/3/6 82/3/6 88/3/6
f 88/3/6 82/3/6 89/3/6
f 89/3/6 82/3/6 90/3/6
f 77/3/6 85/3/6 91/3/6
f 85/2/6 87/2/6 91/2/6
f 87/2/6 88/2/6 91/2/6
f 88/3/6 89/3/6 92/3/6
f 91/2/6 88/2/6 92/2/6
f 89/2/6 90/2/6 93/2/6
f 92/3/6 89/3/6 93/3/6
f 93/2/6 90/2/6 94/2/6
f 91/3/6 92/3/6 95/3/6
f 77/3/6 91/3/6 95/3/6
f 93/3/6 94/3/6 95/3/6
f 92/3/6 93/3/6 95/3/6
f 95/3/6 94/3/6 96/3/6
f 99/1/6 100/1/6 101/1/6
f 101/1/6 100/1/6 102/1/6
f 97/1/6 98/1/6 103/1/6
f 97/1/6 103/1/6 105/1/6
f 103/1/6 104/1/6 105/1/6
f 105/1/6 104/1/6 106/1/6
